<?xml version="1.0" encoding="utf-8"?>
<!-- Generator: Adobe Illustrator 23.0.0, SVG Export Plug-In . SVG Version: 6.00 Build 0)  -->
<svg version="1.1" id="Layer_1" xmlns="http://www.w3.org/2000/svg" xmlns:xlink="http://www.w3.org/1999/xlink" x="0px" y="0px"
	 viewBox="0 0 368.1 354" style="enable-background:new 0 0 368.1 354;" xml:space="preserve">
<style type="text/css">
	.st0{opacity:0.44;}
	.st1{fill:url(#SVGID_1_);}
	.st2{fill:#726344;}
	.st3{fill:url(#SVGID_2_);}
	.st4{fill:#515151;}
	.st5{opacity:0.29;}
	.st6{fill:url(#SVGID_3_);}
	.st7{fill:url(#SVGID_4_);}
	.st8{fill:url(#SVGID_5_);}
	.st9{fill:url(#SVGID_6_);}
	.st10{fill:url(#SVGID_7_);}
	.st11{fill:#006E87;}
	.st12{fill:#1997AA;}
	.st13{fill:url(#SVGID_8_);}
	.st14{fill:url(#SVGID_9_);}
	.st15{fill:url(#SVGID_10_);}
	.st16{fill:#0C5266;}
	.st17{fill:#FFB846;}
	.st18{fill:url(#SVGID_11_);}
	.st19{fill:url(#SVGID_12_);}
	.st20{fill:url(#SVGID_13_);}
	.st21{fill:url(#SVGID_14_);}
	.st22{fill:#5FB0BE;}
	.st23{fill:url(#SVGID_15_);}
	.st24{fill:url(#SVGID_16_);}
	.st25{fill:url(#SVGID_17_);}
	.st26{fill:url(#SVGID_18_);}
	.st27{fill:url(#SVGID_19_);}
	.st28{fill:#0C3946;}
	.st29{fill:#CAF4FF;}
	.st30{fill:url(#SVGID_20_);}
	.st31{fill:url(#SVGID_21_);}
	.st32{fill:#F97700;}
	.st33{fill:#914500;}
	.st34{fill:#ECD634;}
	.st35{opacity:0.65;fill:#565656;enable-background:new    ;}
	.st36{opacity:0.65;fill:#D4D4D4;enable-background:new    ;}
	.st37{fill:url(#SVGID_22_);}
	.st38{fill:url(#SVGID_23_);}
	.st39{fill:url(#SVGID_24_);}
	.st40{fill:url(#SVGID_25_);}
	.st41{opacity:6.000000e-02;}
	.st42{fill:url(#SVGID_26_);}
	.st43{opacity:0.15;}
	.st44{fill:#230753;}
	.st45{fill:#DDDDDD;}
	.st46{fill:#FF1200;}
	.st47{fill:#F4F2ED;}
	.st48{fill:#040028;}
	.st49{fill:none;stroke:#F4F2ED;stroke-width:0.3;stroke-linecap:round;stroke-linejoin:round;}
	.st50{fill:#FFFFFF;}
	.st51{fill:#46AFFF;}
</style>
<title>robot-404</title>
<g>
	<g>
		<g class="st0">
			
				<image style="overflow:visible;enable-background:new    ;" width="651" height="331" xlink:href="208E0149F552A2D3.png"  transform="matrix(0.2393 0 0 0.2393 126.746 298.68)">
			</image>
		</g>
		
			<image style="overflow:visible;opacity:0.4;enable-background:new    ;" width="684" height="662" xlink:href="208E0149F552A2D7.png"  transform="matrix(0.2396 0 0 0.2396 127.714 181.44)">
		</image>
		
			<radialGradient id="SVGID_1_" cx="207.9405" cy="106.704" r="62.66" gradientTransform="matrix(1 0 0 -1 1.971330e-03 365.9971)" gradientUnits="userSpaceOnUse">
			<stop  offset="9.000000e-02" style="stop-color:#D1B68D"/>
			<stop  offset="0.82" style="stop-color:#997A53"/>
		</radialGradient>
		<circle class="st1" cx="207.9" cy="259.3" r="62.7"/>
		<path class="st2" d="M143.8,239.3c-1.3-1.7,0.1-6.6,3.1-10.9s6.4-6.3,7.6-4.6s-0.1,6.6-3.1,10.9S145.1,241.1,143.8,239.3z"/>
		
			<radialGradient id="SVGID_2_" cx="263.49" cy="126.62" r="13.5" gradientTransform="matrix(1 0 0 -1 0 366)" gradientUnits="userSpaceOnUse">
			<stop  offset="8.000000e-02" style="stop-color:#86776B"/>
			<stop  offset="0.42" style="stop-color:#847569"/>
			<stop  offset="0.6" style="stop-color:#7B6E63"/>
			<stop  offset="0.75" style="stop-color:#6E6158"/>
			<stop  offset="0.88" style="stop-color:#5A5048"/>
			<stop  offset="1" style="stop-color:#413A34"/>
		</radialGradient>
		<path class="st3" d="M267.6,255.1c0,0,1.7-5,8.4-7.9l-7.1-9.7l-7.9,0.8L267.6,255.1z"/>
		<path class="st2" d="M245.9,270.4c1.3,1.9-2.4,6.6-8.2,10.5s-11.5,5.4-12.8,3.5s2.4-6.6,8.2-10.5S244.6,268.5,245.9,270.4z"/>
		<path class="st2" d="M206.3,320.8c0.6,2.1-2.6,3.9-7.2,3.8s-8.8-1.8-9.5-3.9s2.6-3.9,7.2-3.8S205.7,318.6,206.3,320.8z"/>
		<path class="st2" d="M156.8,292c-2.1,0.4-6-2.8-8.7-7.2s-3.2-8.4-1-8.8s6,2.8,8.7,7.2S158.9,291.5,156.8,292z"/>
		<path class="st2" d="M265.2,230.8c2.1-0.4,6,3.2,8.6,8.1s3,9.2,0.9,9.6s-6-3.2-8.6-8.1S263.1,231.2,265.2,230.8z"/>
		<path class="st4" d="M174,219.4c0.1,1.1-0.7,2.1-1.9,2.2s-2.1-0.7-2.2-1.9c-0.1-1.1,0.7-2.1,1.8-2.2
			C172.9,217.4,173.9,218.2,174,219.4z"/>
		<path class="st4" d="M228.8,219.4c0.1,1.2-0.8,2.3-2,2.4c-1.2,0.1-2.3-0.8-2.4-2c-0.1-1.2,0.8-2.3,2-2.4c0,0,0,0,0,0
			C227.6,217.2,228.7,218.1,228.8,219.4C228.8,219.4,228.8,219.4,228.8,219.4z"/>
		<path class="st4" d="M145.4,240.4h-0.2c-0.6,0-1.3-0.3-1.6-0.8l0,0c-1.4-1.9,0-6.9,3-11.4c2.3-3.3,4.9-5.4,6.7-5.4
			c0.6,0,1.3,0.3,1.6,0.8c1.4,1.9,0,6.9-3,11.4C149.6,238.2,147.2,240.2,145.4,240.4z M153.1,223.7c-1.3,0.1-3.6,1.7-5.9,5
			c-3.1,4.5-4.1,9-3.1,10.4l0,0c0.2,0.3,0.6,0.5,0.9,0.4c1.3,0,3.6-1.6,6-5c3.1-4.5,4.1-9,3.1-10.4c-0.2-0.3-0.6-0.5-0.9-0.4
			L153.1,223.7z"/>
		<path class="st4" d="M161.9,225.3c-2.2-0.2-5.4,0.3-6.9-1.7c-0.2-0.2-0.5-0.3-0.8-0.1c-0.2,0.2-0.3,0.5-0.1,0.7
			c1.7,2.4,5,1.9,7.6,2.2C162.4,226.4,162.6,225.3,161.9,225.3L161.9,225.3z"/>
		<path class="st4" d="M148.6,246c-0.2-2.8-2.5-5.2-4.4-7.1c-0.5-0.5-1.2,0.4-0.7,0.9c1.7,1.6,3.9,3.8,4,6.3
			C147.5,246.8,148.6,246.7,148.6,246L148.6,246z"/>
		<path class="st4" d="M227.8,285.6c-1.5,0.1-2.6-0.1-3.2-1c-0.8-1.1-0.2-2.8,1.5-5c2-2.3,4.3-4.4,6.8-6c5.2-3.5,11.7-5.9,13.4-3.4
			l0,0c0.7,1.1,0.2,2.8-1.5,5c-2,2.4-4.3,4.4-6.8,6C234.5,283.5,230.6,285.3,227.8,285.6z M243.2,270.1c-2.3,0.2-5.9,1.6-9.8,4.2
			c-2.5,1.6-4.7,3.6-6.6,5.9c-1.4,1.8-1.9,3.2-1.4,4c1,1.5,6.2,0.3,12.2-3.6c2.5-1.6,4.7-3.6,6.6-5.9c1.4-1.8,1.9-3.2,1.4-4l0,0
			C245.2,270.1,244.4,270,243.2,270.1L243.2,270.1z"/>
		<path class="st4" d="M218.6,281c2.4,0.3,4.5,1.7,5.9,3.7c0.4,0.6,1.2,0,0.9-0.6c-1.5-2.3-3.9-3.8-6.6-4.1
			c-0.3-0.1-0.6,0.1-0.6,0.4S218.3,280.9,218.6,281z"/>
		<path class="st4" d="M242.8,262.7c-0.7,2.9,0.8,6.1,2.8,8.1c0.5,0.5,1.2-0.3,0.7-0.8c-1.7-1.8-3-4.6-2.4-7.1
			C244,262.2,243,262,242.8,262.7L242.8,262.7z"/>
		<path class="st4" d="M200.9,324.9c-0.6,0.1-1.2,0.1-1.8,0.1c-4.9,0-9.2-1.9-9.9-4.3c-0.2-0.7-0.1-1.5,0.4-2.1
			c1.1-1.5,3.9-2.4,7.2-2.3c4.9,0,9.2,1.9,9.9,4.3c0.2,0.7,0,1.5-0.4,2.1C205.4,323.9,203.4,324.7,200.9,324.9z M195.2,317.3
			c-2.3,0.2-4.1,0.9-4.8,1.9c-0.3,0.4-0.4,0.9-0.3,1.3c0.5,1.9,4.7,3.6,9,3.6c3,0,5.6-0.8,6.5-2c0.3-0.4,0.4-0.9,0.3-1.3l0,0
			c-0.6-1.9-4.7-3.6-9-3.6C196.3,317.2,195.7,317.3,195.2,317.3L195.2,317.3z"/>
		<path class="st4" d="M187,313.9c1.7,1.8,1.6,4.5,2.1,6.8c0.1,0.7,1.2,0.6,1.1-0.1c-0.5-2.5-0.5-5.4-2.3-7.4
			C187.4,312.7,186.5,313.3,187,313.9L187,313.9z"/>
		<path class="st4" d="M211.7,315.2c-2.5,1.3-4.8,2.6-5.9,5.4c-0.3,0.6,0.7,1.1,1,0.5c1-2.4,3.1-3.6,5.3-4.8
			C212.7,315.9,212.3,314.9,211.7,315.2L211.7,315.2z"/>
		<path class="st4" d="M156.6,292.4c-2.4,0.2-6.2-3-8.9-7.5c-2.1-3.4-2.9-6.6-2.2-8.3c0.2-0.6,0.8-1,1.4-1.2
			c2.3-0.5,6.3,2.8,9.2,7.5c2.1,3.4,2.9,6.6,2.2,8.3c-0.2,0.6-0.8,1-1.4,1.2l0,0L156.6,292.4z M147.3,276.3h-0.1
			c-0.4,0.1-0.7,0.3-0.8,0.7c-0.5,1.2,0,3.9,2.1,7.5c2.8,4.7,6.5,7.4,8.2,7l0,0c0.4-0.1,0.7-0.3,0.8-0.7c0.5-1.2,0-4-2.1-7.5
			C152.6,278.8,149,276.1,147.3,276.3z"/>
		<path class="st4" d="M151.3,269.8c-1.1,1.8-1.9,5-4.3,5.5c-0.7,0.1-0.6,1.2,0.1,1.1c2.9-0.6,3.9-3.9,5.2-6.1
			C152.6,269.7,151.6,269.2,151.3,269.8L151.3,269.8z"/>
		<path class="st4" d="M164.8,290.3c-2.7-1-5.8,0.1-8.3,1.1c-0.3,0.2-0.3,0.5-0.1,0.8c0.1,0.2,0.3,0.3,0.5,0.2
			c2.2-0.9,5.1-2,7.4-1.1C165,291.5,165.5,290.5,164.8,290.3L164.8,290.3z"/>
		<path class="st4" d="M274.6,248.9c-2.4,0.2-6.2-3.4-8.9-8.4c-2-3.8-2.8-7.4-2-9.1c0.3-0.6,0.8-1,1.4-1.1l0,0
			c2.3-0.4,6.3,3.2,9,8.3c2,3.8,2.8,7.4,2,9.1c-0.3,0.6-0.8,1-1.4,1.1L274.6,248.9z M265.5,231.2h-0.1l0,0c-0.3,0.1-0.6,0.3-0.8,0.6
			c-0.6,1.2-0.2,4.3,2,8.3c2.8,5.1,6.4,8.2,8.1,7.9c0.3-0.1,0.6-0.3,0.8-0.6c0.6-1.2,0.2-4.3-2-8.3
			C270.8,234.1,267.2,231,265.5,231.2z"/>
		<path class="st4" d="M270.2,252c1-1.6,2.7-2.8,4.6-3c0.7-0.1,0.6-1.2-0.1-1.1c-2.3,0.3-4.3,1.6-5.5,3.6
			C268.8,252.1,269.8,252.5,270.2,252L270.2,252z"/>
		<path class="st4" d="M258.8,232.9c2.4,1,4.5-0.6,6.7-1.6c0.6-0.3,0.3-1.3-0.4-1c-1.8,0.8-3.8,2.4-5.8,1.6
			C258.6,231.6,258.1,232.6,258.8,232.9L258.8,232.9z"/>
		<path class="st4" d="M182.2,236.7c0,0.6-0.4,1.1-1,1.1c-0.6,0-1.1-0.4-1.1-1c0-0.6,0.4-1,0.9-1.1
			C181.7,235.7,182.2,236.1,182.2,236.7C182.2,236.7,182.2,236.7,182.2,236.7z"/>
		<path class="st4" d="M150.3,256.6c0.1,0.6-0.4,1.1-1,1.1c-0.6,0.1-1.1-0.4-1.1-1c-0.1-0.6,0.4-1.1,0.9-1.1
			C149.8,255.6,150.3,256,150.3,256.6z"/>
		<path class="st4" d="M257.3,236.6c0,0.6-0.4,1.1-1,1.1c-0.6,0-1.1-0.4-1.1-1c0-0.6,0.4-1,0.9-1.1
			C256.7,235.6,257.2,236,257.3,236.6C257.3,236.6,257.3,236.6,257.3,236.6z"/>
		<path class="st4" d="M172.2,255.5c0.1,1.1-0.7,2.1-1.9,2.2c-1.1,0.1-2.1-0.7-2.2-1.9c-0.1-1.1,0.7-2.1,1.9-2.2
			C171.1,253.5,172.1,254.3,172.2,255.5C172.2,255.5,172.2,255.5,172.2,255.5z"/>
		<path class="st4" d="M182.2,307.4c0.1,1.4-0.9,2.6-2.3,2.7s-2.6-0.9-2.7-2.3c-0.1-1.4,0.9-2.6,2.3-2.7
			C180.9,305,182.1,306,182.2,307.4z"/>
		<path class="st4" d="M219,305.4c0.1,0.6-0.4,1.2-1.1,1.3s-1.2-0.4-1.3-1.1c-0.1-0.6,0.4-1.2,1.1-1.3
			C218.4,304.3,218.9,304.8,219,305.4C219,305.4,219,305.4,219,305.4z"/>
		<path class="st4" d="M259.8,273.5c0.1,1-0.6,1.8-1.6,1.9c-1,0.1-1.8-0.6-1.9-1.6c-0.1-1,0.6-1.8,1.6-1.9
			C258.8,271.8,259.7,272.5,259.8,273.5C259.8,273.5,259.8,273.5,259.8,273.5z"/>
		<path class="st4" d="M239.2,241.5c0.1,1.2-0.8,2.3-2,2.4c-1.2,0.1-2.3-0.8-2.4-2c-0.1-1.2,0.8-2.3,2-2.4
			C238,239.4,239.1,240.3,239.2,241.5C239.2,241.5,239.2,241.5,239.2,241.5z"/>
		<path class="st4" d="M224.7,254.3c0.1,0.6-0.4,1-0.9,1.1s-1-0.4-1.1-0.9l0,0c-0.1-0.5,0.3-1,0.9-1.1c0,0,0,0,0,0
			C224.2,253.3,224.7,253.7,224.7,254.3C224.7,254.3,224.7,254.3,224.7,254.3z"/>
		<path class="st4" d="M211.1,279.1c0.1,1.5-0.9,2.8-2.4,3c-1.5,0.1-2.8-0.9-3-2.4c-0.1-1.5,0.9-2.8,2.4-3c0,0,0,0,0,0
			C209.6,276.5,210.9,277.6,211.1,279.1z"/>
		<path class="st4" d="M243.3,300.5c0.1,0.8-0.5,1.5-1.3,1.6c-0.8,0.1-1.5-0.5-1.6-1.3c-0.1-0.8,0.5-1.5,1.3-1.6
			C242.5,299.1,243.2,299.7,243.3,300.5z"/>
		<g class="st5">
			
				<image style="overflow:visible;enable-background:new    ;" width="1079" height="1492" xlink:href="208E0149F552A2C9.png"  transform="matrix(0.2398 0 0 0.2398 89.43 -23.1141)">
			</image>
		</g>
		
			<radialGradient id="SVGID_3_" cx="173.445" cy="188.675" r="15.4791" gradientTransform="matrix(1 0 0 -1 0 366)" gradientUnits="userSpaceOnUse">
			<stop  offset="8.000000e-02" style="stop-color:#97FFFF"/>
			<stop  offset="0.59" style="stop-color:#79D5DC"/>
			<stop  offset="1" style="stop-color:#5FB0BE"/>
		</radialGradient>
		<path class="st6" d="M183.6,160.1c0,0-12,9.6-17.1,17.1c-2.9,4.2-5.1,8.9-6.5,13.8c0,0,3.4-0.4,4.4,1.4c0.3,0.7,0.6,1.4,0.9,2.1
			c1.5-6.5,4.3-12.6,8.2-17.9c6.7-9.2,13.6-13.3,13.6-13.3s-1,0.3-2.5-1.6C184.1,161.3,183.7,160.7,183.6,160.1z"/>
		
			<radialGradient id="SVGID_4_" cx="248.15" cy="177.87" r="14.1626" gradientTransform="matrix(1 0 0 -1 0 366)" gradientUnits="userSpaceOnUse">
			<stop  offset="8.000000e-02" style="stop-color:#97FFFF"/>
			<stop  offset="0.59" style="stop-color:#79D5DC"/>
			<stop  offset="1" style="stop-color:#5FB0BE"/>
		</radialGradient>
		<path class="st7" d="M240,171.6c0,0,2.6,5.6,5.6,18.2s3,12.6,3,16.6c1.4-0.3,2.8-0.8,4.2-1.2c1.2-0.4,2.4-0.6,3.6-0.4
			c0,0-4-14.6-7-23.6s-5.6-11.3-5.6-11.3c-0.4,0.7-1,1.3-1.8,1.6C241.3,171.6,240.7,171.7,240,171.6z"/>
		
			<linearGradient id="SVGID_5_" gradientUnits="userSpaceOnUse" x1="233.06" y1="200.975" x2="245.5827" y2="200.975" gradientTransform="matrix(1 0 0 -1 0 366)">
			<stop  offset="0.15" style="stop-color:#FFB846"/>
			<stop  offset="0.79" style="stop-color:#FF9D28"/>
		</linearGradient>
		<path class="st8" d="M236,158.1c-2.9,1.4-3.9,5.6-2,9.4s5.7,5.8,8.6,4.4s3.9-5.6,2.1-9.4S239,156.7,236,158.1z"/>
		
			<linearGradient id="SVGID_6_" gradientUnits="userSpaceOnUse" x1="181.6512" y1="207.4175" x2="196.0812" y2="207.4175" gradientTransform="matrix(1 0 0 -1 0 366)">
			<stop  offset="0.15" style="stop-color:#FFB846"/>
			<stop  offset="0.79" style="stop-color:#FF9D28"/>
		</linearGradient>
		<path class="st9" d="M182.3,162.5c1.7,2.8,6,3.3,9.6,1.1s5.2-6.2,3.5-9s-6-3.3-9.6-1.1S180.6,159.7,182.3,162.5z"/>
		
			<linearGradient id="SVGID_7_" gradientUnits="userSpaceOnUse" x1="213.66" y1="220.98" x2="225.68" y2="220.98" gradientTransform="matrix(1 0 0 -1 0 366)">
			<stop  offset="0.12" style="stop-color:#195F83"/>
			<stop  offset="0.5" style="stop-color:#1997AA"/>
			<stop  offset="1" style="stop-color:#196193"/>
		</linearGradient>
		<path class="st10" d="M214.4,134c-0.5,2.6-0.7,5.3-0.7,8c-0.1,2.8,0.2,5.6,0.8,8.4c1.2,0.8,2.5,1.5,3.8,2c1.4,0.5,4.4,3.6,4.4,3.6
			s-0.8-8.5,0.1-12.9c0.7-2.9,1.7-5.8,3-8.5c0,0-4.4,1.1-6.8,0.5S214.4,134,214.4,134z"/>
		<path class="st11" d="M236.3,59.1c-0.2,0-0.4,0-0.6-0.2l-13.1-10.3c-0.4-0.3-0.4-0.9-0.1-1.2c0.1-0.2,0.3-0.3,0.5-0.3l11.1-2.5
			l-7.9-5c-0.3-0.2-0.4-0.5-0.4-0.8c0-0.3,0.2-0.6,0.5-0.7l9.9-3.9l-5.7-4.7c-0.2-0.2-0.4-0.5-0.3-0.8c0-0.3,0.3-0.6,0.5-0.7
			l6.9-2.6l-3.5-4.7c-0.2-0.2-0.2-0.5-0.2-0.7c0.1-0.2,0.2-0.5,0.4-0.6l5.8-3.5c0.4-0.2,1-0.1,1.2,0.3c0.2,0.4,0.1,1-0.3,1.2l-5,3
			l3.6,4.9c0.2,0.2,0.2,0.5,0.1,0.8c-0.1,0.3-0.3,0.5-0.5,0.6l-6.5,2.5l5.7,4.7c0.2,0.2,0.4,0.5,0.3,0.8c0,0.3-0.3,0.6-0.5,0.7
			l-9.7,3.8l8.2,5.2c0.3,0.2,0.5,0.5,0.4,0.9c-0.1,0.3-0.3,0.6-0.7,0.7L225,48.3l11.7,9.2c0.4,0.3,0.5,0.8,0.2,1.2
			C236.7,58.9,236.5,59,236.3,59.1L236.3,59.1z"/>
		<path class="st12" d="M243.4,18.4c-2,0.2-3.7-1.2-3.9-3.2c-0.2-2,1.2-3.7,3.2-3.9c2-0.2,3.7,1.2,3.9,3.2c0,0,0,0,0,0
			C246.8,16.4,245.4,18.2,243.4,18.4C243.4,18.3,243.4,18.3,243.4,18.4z M242.9,13c-1,0.1-1.7,1-1.6,2c0.1,1,1,1.7,2,1.6
			c1-0.1,1.7-1,1.6-2C244.8,13.6,244,12.9,242.9,13C242.9,13,242.9,13,242.9,13z"/>
		
			<linearGradient id="SVGID_8_" gradientUnits="userSpaceOnUse" x1="253.9509" y1="266.4227" x2="276.9509" y2="258.5927" gradientTransform="matrix(1 0 0 -1 0 366)">
			<stop  offset="0.12" style="stop-color:#195F83"/>
			<stop  offset="0.5" style="stop-color:#1997AA"/>
		</linearGradient>
		<path class="st13" d="M262.8,120.5c-1.9,1.4-3.7,3-5.3,4.7c-2.4,2.6-6.4,6.8-6.4,6.8s-2.6-11.4,1.6-32.2
			c4.9-24.1,10.7-30.4,10.7-30.4s0.3,3.5,2.3,5.2c1.3,1.2,2.7,2.1,4.4,2.7c-3.2,7.5-5.3,15.4-6.2,23.6
			C262.2,114.2,262.8,120.5,262.8,120.5z"/>
		
			<radialGradient id="SVGID_9_" cx="225.6175" cy="268.8417" r="40.0915" gradientTransform="matrix(1 0 0 -1 0 366)" gradientUnits="userSpaceOnUse">
			<stop  offset="8.000000e-02" style="stop-color:#97FFFF"/>
			<stop  offset="0.59" style="stop-color:#79D5DC"/>
			<stop  offset="1" style="stop-color:#5FB0BE"/>
		</radialGradient>
		<path class="st14" d="M199.1,57.8c0,0-9.9,9.2-11.1,35.5s2.8,35.1,2.8,35.1s4.5,9.2,27.2,10.9s33-7.3,33-7.3
			c-1.3-12.5-0.3-25.1,2.7-37.3c5.1-20.1,9.6-25.4,9.6-25.4s-3.1-7.8-28-12.5C209.7,51.9,199.1,57.8,199.1,57.8z"/>
		<path class="st12" d="M218.2,225.8l-7,9.3c-0.6-1-1.3-1.9-2.1-2.7c-1.1-1-2.5-1.6-4-1.5l3.3-3.3c0,0,2.2-0.1,4.7-0.4
			C214.9,226.9,216.6,226.5,218.2,225.8z"/>
		<path class="st12" d="M169.8,213.8c2.2-0.7,4.5-1.2,6.8-1.3c1.6-0.1,3.3-0.1,4.9,0.2c-0.2,1.1-0.2,2.3,0,3.4
			c0.3,1.7,0.8,1.8,0.8,1.8c-1.6,0.5-3.3,1-5,1.2c-2,0.2-4,0.1-6-0.2c0,0,0.4-0.5-0.2-2.5C170.8,215.4,170.4,214.5,169.8,213.8z"/>
		
			<linearGradient id="SVGID_10_" gradientUnits="userSpaceOnUse" x1="180.5135" y1="147.6391" x2="224.3825" y2="147.6391" gradientTransform="matrix(1 0 0 -1 0 366)">
			<stop  offset="0.12" style="stop-color:#195F83"/>
			<stop  offset="0.5" style="stop-color:#1997AA"/>
			<stop  offset="1" style="stop-color:#196193"/>
		</linearGradient>
		<path class="st15" d="M224,221.2c-1.2,2.4-3.6,4.2-7.6,5.5c-6.5,2-19.7,2.2-27.2-1.9c-7.7-4.2-8.9-8.7-8.6-11.2
			c0.3-1.9,1.3-3.6,2.6-5c0,0,6.5,6.1,18.4,9.4c7.4,2,15.1,2.3,22.6,0.9C224.5,219.7,224.5,220.5,224,221.2z"/>
		<path class="st16" d="M179.8,91.6c-1.5,0.2-3-0.2-4.2-1.2c-0.6-0.5-1.1-1.1-1.4-1.8l0.8-0.3c0.3,0.6,0.7,1.1,1.2,1.6
			c1.6,1.6,4.6,0.7,4.6,0.7l0.2,0.8C180.7,91.5,180.2,91.5,179.8,91.6z"/>
		<path class="st17" d="M185.7,87.4c-1.3,0.5-3.6,1.1-3.6,1.1c0,1.1-0.1,2.2-0.2,3.2c-0.3,1.1-1,3.2-1,3.2c1,0.4,1.9,0.9,2.8,1.4
			c1.6,1.1,4.2,2.8,4.2,2.8c0-3.2,0.2-6.5,0.5-9.7c0.2-1.5,0.5-3.5,0.5-3.5C187.9,86.6,186.8,87.1,185.7,87.4z"/>
		<path class="st16" d="M182.7,92c-0.4,1.8-1.2,3.1-1.8,3s-0.8-1.7-0.5-3.5s1.2-3.1,1.8-3S183.1,90.2,182.7,92z"/>
		
			<radialGradient id="SVGID_11_" cx="206.8738" cy="182.4576" r="34.21" gradientTransform="matrix(1 0 0 -1 0 366)" gradientUnits="userSpaceOnUse">
			<stop  offset="8.000000e-02" style="stop-color:#97FFFF"/>
			<stop  offset="0.59" style="stop-color:#79D5DC"/>
			<stop  offset="1" style="stop-color:#5FB0BE"/>
		</radialGradient>
		<path class="st18" d="M175.5,200.8c0,0,4.8,10.3,22.7,16.9c10.8,3.9,22.7,3.5,33.2-1.2c5.5-13.2,7.8-27.6,6.5-41.9
			c-2.4-25.9-26.4-36.2-43.2-20.2C179,169.3,175.5,200.8,175.5,200.8z"/>
		
			<linearGradient id="SVGID_12_" gradientUnits="userSpaceOnUse" x1="227.47" y1="181.49" x2="242.05" y2="181.49" gradientTransform="matrix(1 0 0 -1 0 366)">
			<stop  offset="0.12" style="stop-color:#195F83"/>
			<stop  offset="0.5" style="stop-color:#1997AA"/>
		</linearGradient>
		<path class="st19" d="M240.8,210.3c0,0-0.6,1.5-3.6,3.6c-1.9,1-3.9,2-6,2.7c0,0,3.4-5.6,5.8-19c2.6-14.2,1.2-27-2.3-34.7
			s-7.2-10.6-7.2-10.6s9.7,5.4,13,24.8C243.8,197.5,240.8,210.3,240.8,210.3z"/>
		
			<radialGradient id="SVGID_13_" cx="157.855" cy="162.77" r="10.9745" gradientTransform="matrix(1 0 0 -1 0 366)" gradientUnits="userSpaceOnUse">
			<stop  offset="8.000000e-02" style="stop-color:#97FFFF"/>
			<stop  offset="0.59" style="stop-color:#79D5DC"/>
			<stop  offset="1" style="stop-color:#5FB0BE"/>
		</radialGradient>
		<path class="st20" d="M156.6,195c-2.2-0.6-4.6-0.4-6.6,0.6c-3.9,1.7-5.1,6.3-5.1,6.3c0.7,0.7,1.3,1.6,1.8,2.5
			c0.4,0.7,0.7,1.4,0.8,2.1c1-1.5,2.1-3,3.3-4.3c2.4-2.4,4.2-2.3,4.2-1c0,1.7-0.3,3.3-0.7,4.9c-0.3,1.3-0.7,2.5-1.4,3.7
			c0.9,0.4,1.9,0.8,2.9,1c2,0.4,3.7,0.7,3.7,0.7c0.6-1.9,0.9-4,0.9-6c0.2-3.1,0.3-3.5,0.9-3.5s1.8,1.6,2.4,3.9c0.4,2,0.6,4,0.6,6
			c0,0,1.9-1.1,3.2-1.8c1.2-0.7,2.3-1.4,3.3-2.3c0-2.5-0.7-4.9-1.9-7c-2-3.5-4.2-4.5-4.2-4.5c-1.2,1-2.8,1.3-4.3,1
			C159.1,196.8,157.7,196,156.6,195z"/>
		
			<radialGradient id="SVGID_14_" cx="251.9846" cy="149.4174" r="11.0888" gradientTransform="matrix(1 0 0 -1 0 366)" gradientUnits="userSpaceOnUse">
			<stop  offset="8.000000e-02" style="stop-color:#97FFFF"/>
			<stop  offset="0.59" style="stop-color:#79D5DC"/>
			<stop  offset="1" style="stop-color:#5FB0BE"/>
		</radialGradient>
		<path class="st21" d="M248.6,209.6c-2.9-0.3-5.8,0.9-7.7,3.2c-2.9,3.8-2.8,6.8-2.8,6.8s1.3,0.7,2.7,1.4c0.9,0.5,1.8,1.1,2.6,1.8
			c0.1-1.7,0.7-3.4,1.7-4.9c1-1.5,2.4-2.6,4.1-3.1c0,0-1.3,1.3-1.4,4.9c-0.2,1.5,0.3,3.1,1.4,4.2c0,0,1,0,2.7-0.1
			c1.2-0.1,3.8-0.3,3.8-0.3c-0.8-1.4-1.2-3-1.1-4.6c0.3-3.4,2.3-4.1,2.3-4.1c1.1,1,2,2.2,2.6,3.6c1.5,3.1,0.3,4.7,0.3,4.7
			c1.4-0.3,2.7-1,3.9-1.8c0.9-0.6,1.6-1.4,2.2-2.2c-0.4-2.7-1.7-5.2-3.7-7.1c-3-2.9-5.1-2.7-5.1-2.7s-0.5,3.2-4.9,2.5
			C248.1,211.2,248.6,209.6,248.6,209.6z"/>
		<polygon class="st22" points="166.1,217.7 134.6,250.4 136.2,267.7 170.9,219.7 		"/>
		
			<radialGradient id="SVGID_15_" cx="195.155" cy="101.13" r="24.571" gradientTransform="matrix(1 0 0 -1 0 366)" gradientUnits="userSpaceOnUse">
			<stop  offset="8.000000e-02" style="stop-color:#97FFFF"/>
			<stop  offset="0.59" style="stop-color:#79D5DC"/>
			<stop  offset="1" style="stop-color:#5FB0BE"/>
		</radialGradient>
		<path class="st23" d="M203.1,233.6c-3.6,4.7-7,9.7-10,14.8c-6,9.9-12.5,23.1-12.5,23.1c3.2,2.5,5.1,6.4,5.1,10.5
			c0,6.7-5.8,14-5.8,14s1.2,1.2,5.6-3.7s9.2-18,10.7-25.2s6.1-17.8,8.8-23s5.2-10.3,5.2-10.3L203.1,233.6z"/>
		
			<linearGradient id="SVGID_16_" gradientUnits="userSpaceOnUse" x1="122.67" y1="109.4252" x2="138.27" y2="109.4252" gradientTransform="matrix(1 0 0 -1 0 366)">
			<stop  offset="0.15" style="stop-color:#FFB846"/>
			<stop  offset="0.79" style="stop-color:#FF9D28"/>
		</linearGradient>
		<path class="st24" d="M138.1,256c0.8,8-1.3,14.7-6.3,15.2c-4.2,0.4-8.3-5.7-9-13.7s1.5-15.1,6.2-15.5
			C134.1,241.5,137.4,248.1,138.1,256z"/>
		<path class="st11" d="M134.9,259.2c0.7,6-1.5,11.2-4.5,11.5c-2.8,0.3-6.5-5-7-10.2c-0.6-6,0.9-11.4,4.5-11.8
			C131.7,248.3,134.2,253.2,134.9,259.2z"/>
		
			<linearGradient id="SVGID_17_" gradientUnits="userSpaceOnUse" x1="168.9408" y1="82.4831" x2="186.3101" y2="82.4831" gradientTransform="matrix(1 0 0 -1 0 366)">
			<stop  offset="0.15" style="stop-color:#FFB846"/>
			<stop  offset="0.79" style="stop-color:#FF9D28"/>
		</linearGradient>
		<path class="st25" d="M180.8,270.4c-3-0.4-7.1,2.2-9.8,7c-4.1,7.3-1,14.2,1.2,16.5s5.4,4.5,9,1.2s5.1-9,5.1-15.6
			C186.3,275.3,183.9,270.8,180.8,270.4z"/>
		<path class="st11" d="M175.7,275.4c1.6-0.7,4.5-0.2,6.3,4.3s1.2,11.9-1,15.1s-6.3,2.3-9.5-1.3s-2.3-9.5-1-12.7
			C171.5,278.3,173.3,276.4,175.7,275.4z"/>
		
			<linearGradient id="SVGID_18_" gradientUnits="userSpaceOnUse" x1="198.786" y1="191.848" x2="214.636" y2="191.848" gradientTransform="matrix(1 0 0 -1 0 366)">
			<stop  offset="0.12" style="stop-color:#195F83"/>
			<stop  offset="0.5" style="stop-color:#1997AA"/>
		</linearGradient>
		<path class="st26" d="M213.6,177.6c-2.1,4.3-7,6.2-10.8,4.4s-5.2-6.9-3.1-11.2s7-6.2,10.8-4.4S215.8,173.3,213.6,177.6z"/>
		
			<linearGradient id="SVGID_19_" gradientUnits="userSpaceOnUse" x1="202.07" y1="192.895" x2="208.61" y2="192.895" gradientTransform="matrix(1 0 0 -1 0 366)">
			<stop  offset="0.15" style="stop-color:#FFB846"/>
			<stop  offset="0.79" style="stop-color:#FF9D28"/>
		</linearGradient>
		<path class="st27" d="M208.2,174.9c-1,1.5-3,1.9-4.4,0.9c-1.5-1-1.9-3-0.9-4.4c0.9-1.4,2.7-1.8,4.1-1.1
			C208.6,171.2,209.1,173.2,208.2,174.9z"/>
		<path class="st28" d="M204,85.3c0.5,5-2.9,9.5-7.5,9.9s-8.8-3.3-9.2-8.3s2.9-9.4,7.5-9.9S203.5,80.3,204,85.3z"/>
		<path class="st29" d="M201.8,85.9c0.4,4.2-2.4,8-6.3,8.3s-7.4-2.8-7.8-7s2.4-8,6.3-8.3S201.4,81.7,201.8,85.9z"/>
		<path class="st28" d="M255.6,93c0.5,5-2.9,9.5-7.5,9.9s-8.8-3.3-9.2-8.3s2.9-9.5,7.5-9.9S255.2,87.9,255.6,93z"/>
		<path class="st29" d="M253.4,93.5c0.4,4.2-2.4,8-6.3,8.3s-7.4-2.8-7.8-7s2.4-7.9,6.3-8.3S253,89.3,253.4,93.5z"/>
		
			<linearGradient id="SVGID_20_" gradientUnits="userSpaceOnUse" x1="194.52" y1="245.9759" x2="229.88" y2="245.9759" gradientTransform="matrix(1 0 0 -1 0 366)">
			<stop  offset="0.15" style="stop-color:#FFB846"/>
			<stop  offset="0.79" style="stop-color:#FF9D28"/>
		</linearGradient>
		<path class="st30" d="M194.5,120.9l2,3.8c0,0,5-8.1,16-6.1s12.1,12.3,12.1,12.3l5.2-4.1c0,0,1.5-14.7-14-17.2
			S194.5,120.9,194.5,120.9z"/>
		<path class="st28" d="M224.6,131.5c-0.1,0-0.2,0-0.3-0.1c-0.2-0.1-0.4-0.3-0.4-0.5c-0.8-6-5.5-10.8-11.5-11.7
			c-10.4-1.8-15.2,5.8-15.3,5.8c-0.1,0.2-0.3,0.3-0.6,0.3c-0.2,0-0.4-0.1-0.5-0.3l-2-3.8c-0.1-0.2-0.1-0.4,0-0.6
			c0.1-0.2,6-14.2,22-11.7s14.6,17.7,14.6,17.9c0,0.2-0.1,0.3-0.2,0.4l-5.3,4C224.9,131.4,224.8,131.4,224.6,131.5z M207.6,117.6
			c1.7-0.2,3.4-0.1,5.1,0.2c6.1,1,11.1,5.7,12.4,11.8l4.2-3.2c0.1-2,0.3-14-13.5-16.2s-19.5,8.7-20.4,10.7l1.4,2.6
			C199.4,120.1,203.3,118,207.6,117.6z"/>
		<path class="st28" d="M225.8,96.7c-0.1,1.7-3,2.8-6.5,2.6s-6.1-1.8-6-3.5s3-2.8,6.5-2.6S225.9,95.1,225.8,96.7z"/>
		<path class="st28" d="M200,121.5c-0.8-0.5-1.4-1.3-1.8-2.1c-0.6-1.1-0.9-2.4-0.9-3.7h1.3c0,1,0.2,2.1,0.7,3
			c0.3,0.6,0.8,1.2,1.3,1.7L200,121.5z"/>
		<path class="st28" d="M204.4,119.1c-0.7-1-1.2-2.1-1.7-3.2c-0.5-1.3-0.8-2.6-0.9-4l1.3-0.1c0.1,1.2,0.4,2.5,0.8,3.6
			c0.4,1,0.9,2,1.5,2.9L204.4,119.1z"/>
		<path class="st28" d="M208.2,118.6c-0.5-1.4-0.9-2.8-1-4.3c-0.2-1.8,0.1-3.5,0.9-5.1l1.1,0.6c-0.6,1.4-0.9,2.9-0.7,4.4
			c0.2,1.3,0.5,2.7,1,3.9L208.2,118.6z"/>
		<path class="st28" d="M212.3,118.7c-0.1-1.5-0.1-3,0-4.4c0.1-1.8,0.6-3.6,1.4-5.2l1.1,0.6c-0.7,1.4-1.2,3-1.3,4.6
			c-0.1,1.4-0.1,2.8,0,4.2L212.3,118.7z"/>
		<path class="st28" d="M217.9,120.2l-1.3-0.2c0,0,0.4-2.2,1-4.8c0.4-1.7,1.2-3.4,2.2-4.8l1,0.8c-0.9,1.3-1.6,2.8-2,4.3
			C218.2,118,217.9,120.2,217.9,120.2z"/>
		<path class="st28" d="M222,123.6l-1.3-0.3c0.4-1.4,0.9-2.8,1.6-4.1c1-1.7,2.1-3.3,3.5-4.8l1,0.9c-1.3,1.4-2.4,2.9-3.3,4.5
			C222.9,121.1,222.4,122.3,222,123.6z"/>
		<path class="st28" d="M224.2,127.6L223,127c0.7-1.3,1.6-2.5,2.7-3.6c1.1-0.9,2.3-1.6,3.5-2.2l0.6,1.2c-1.2,0.6-2.2,1.2-3.2,2
			C225.6,125.4,224.8,126.4,224.2,127.6z"/>
		<path class="st11" d="M271.3,106.5c-0.3,0-0.7,0-1,0c-1.3-0.3-2.4-1-3.4-1.9l0.6-0.6c0.8,0.8,1.8,1.4,2.9,1.6
			c1.4,0.1,2.7-0.5,3.6-1.6l0.7,0.6C273.9,105.7,272.7,106.3,271.3,106.5z"/>
		<path class="st11" d="M193.3,173.2c-0.7,0-1.3-0.3-1.7-0.8c-1.3-1.8-1.3-4.2,0.1-6c0.3-0.5,0.7-0.9,1.1-1.3
			c-2-1.9-4.8-2.8-7.6-2.3c-0.3,0.1-0.6,0.2-0.9,0.3c0.8,1.1,1.4,2.4,1.7,3.8c0.6,2.4,0.2,4.4-1.1,5.4c-0.7,0.6-1.7,0.7-2.5,0.3
			c-1.2-0.6-1.9-2.2-1.9-4.4c-0.1-2.1,0.8-4.1,2.5-5.4c-1.4-1.5-3.1-2.6-5-3.2c-2.6-0.9-5.3-1.1-8-0.6l-0.2-0.9
			c2.8-0.5,5.8-0.3,8.5,0.7c2.1,0.7,4,2,5.4,3.6c0.4-0.2,0.9-0.3,1.3-0.4c3.1-0.5,6.2,0.5,8.4,2.7c1.6-1.1,3.6-1.5,5.5-0.9
			c5.7,1.6,5.5,6.4,5.5,6.5h-0.9c0-0.2,0.1-4.2-4.9-5.6c-1.6-0.5-3.3-0.2-4.7,0.7c0.5,0.6,1,1.2,1.3,1.9c1.1,2,0.5,4.4-1.3,5.7
			C193.9,173.1,193.6,173.2,193.3,173.2z M193.5,165.7c-0.4,0.4-0.7,0.7-1,1.2c-1.1,1.5-1.2,3.5-0.1,5c0.3,0.5,0.9,0.6,1.4,0.3
			c0,0,0.1,0,0.1-0.1c1.4-1.1,1.8-3.1,0.9-4.6C194.4,166.8,194,166.2,193.5,165.7z M183.6,163.4c-1.5,1.1-2.3,2.9-2.2,4.7
			c0,1.8,0.5,3.1,1.4,3.6c0.5,0.3,1.2,0.2,1.6-0.2c0.8-0.6,1.4-2.1,0.8-4.5C184.9,165.7,184.4,164.5,183.6,163.4L183.6,163.4z"/>
		<path class="st11" d="M170.3,159.1c-0.5,2.6-2.7,4.4-4.8,4s-3.3-2.9-2.8-5.6s2.7-4.4,4.8-4S170.9,156.4,170.3,159.1z"/>
		
			<linearGradient id="SVGID_21_" gradientUnits="userSpaceOnUse" x1="163.5197" y1="206.705" x2="168.35" y2="206.705" gradientTransform="matrix(1 0 0 -1 0 366)">
			<stop  offset="0.15" style="stop-color:#FFB846"/>
			<stop  offset="0.79" style="stop-color:#FF9D28"/>
		</linearGradient>
		<path class="st31" d="M168.4,159.2c0,1.7-1,3.1-2.4,3.1s-2.4-1.3-2.5-3s1-3.1,2.4-3.1S168.3,157.6,168.4,159.2z"/>
		<polygon class="st17" points="191.7,30.2 194.6,30.1 193.8,32.3 		"/>
		<path class="st12" d="M194,33.8c0,0-3,0.9-2.9,5s3.5,6.8,11.1,5.7s9.7-8.9,9.7-8.9s-1.5,1.1-4.9,1.2c-3.1,0.1-6.8-0.6-5.7-1.5
			c1.5-1.4,1.7-3.6,0.4-5.2c-1.7-2.4-5.8-1.9-7.1,0c-0.5,0.7-0.7,1.5-0.8,2.3C193.8,32.8,193.8,33.3,194,33.8z"/>
		<path class="st11" d="M197.1,39.5c0,0,0.8-3.2,4.8-1.9c5.8,1.9,8.6-0.3,8.6-0.3c-1.6,2.7-4.1,4.6-7.1,5.4
			C197.3,44.1,196.8,40.5,197.1,39.5z"/>
		<path class="st11" d="M196.5,30.5c0.6-0.6,1.9-0.2,1.5,0.8c-0.2,0.4,0.4,0.7,0.6,0.3c0.7-1.6-1.5-2.6-2.6-1.5
			C195.7,30.4,196.2,30.9,196.5,30.5L196.5,30.5z"/>
		<polygon class="st17" points="297.3,77.7 299.2,78.4 298,79.7 		"/>
		<path class="st12" d="M297.7,80.8c0,0-2.3-0.3-3.5,2.5s0.2,5.7,5.7,7.2s9.2-3,9.2-3c-1.3,0.1-2.5-0.1-3.7-0.7
			c-2.1-0.9-4.4-2.5-3.3-2.8c1.4-0.5,2.2-1.9,1.9-3.3c-0.6-1.9-2.5-2.9-4.4-2.4c-0.1,0-0.3,0.1-0.4,0.1c-0.5,0.3-0.9,0.8-1.2,1.3
			C297.8,80,297.7,80.4,297.7,80.8z"/>
		<path class="st11" d="M298,85.6c0,0,1.5-1.9,3.8,0.2c3.3,3,5.9,2.4,5.9,2.4c-1.9,1.3-4.2,1.8-6.5,1.4
			C296.7,88.7,297.5,86.1,298,85.6z"/>
		<path class="st11" d="M300.4,79.3c0.6-0.2,1.3,0.4,0.7,1c-0.2,0.2,0.1,0.6,0.3,0.4c1-0.9-0.2-2.2-1.3-1.8
			C299.9,79.1,300.1,79.5,300.4,79.3L300.4,79.3z"/>
		<polygon class="st17" points="273.9,43.2 271.6,43.5 272.6,45.2 		"/>
		<path class="st12" d="M272.7,46.4c0,0,2.5,0.2,3,3.5s-1.6,5.8-7.8,6s-8.9-5.4-8.9-5.4c1.3,0.4,2.7,0.5,4,0.2
			c2.4-0.4,5.2-1.5,4.2-2c-1.4-0.8-1.9-2.6-1.1-4c1-2.1,4.2-2.4,5.5-1.1c0.5,0.4,0.8,1,1,1.7C272.7,45.6,272.7,46,272.7,46.4z"/>
		<path class="st11" d="M271.1,51.3c0,0-1.1-2.4-4-0.8c-4.2,2.3-6.7,1-6.7,1c1.6,1.9,3.9,3,6.4,3.2
			C271.6,54.8,271.5,51.9,271.1,51.3z"/>
		<path class="st11" d="M270.2,44.2c-0.5-0.4-1.5,0.1-1,0.8c0.1,0.1,0,0.3-0.1,0.4c-0.1,0.1-0.2,0-0.3-0.1c-0.8-1.2,0.7-2.2,1.8-1.5
			C270.8,44,270.5,44.4,270.2,44.2L270.2,44.2z"/>
		<polygon class="st17" points="149.9,56.7 151.4,56.6 151,57.9 		"/>
		<path class="st12" d="M151.1,58.8c-1.1,0.5-1.8,1.6-1.6,2.8c0.1,2.3,1.9,3.8,6.2,3.2s5.5-5,5.5-5c-0.8,0.5-1.8,0.7-2.8,0.7
			c-1.8,0-3.8-0.3-3.2-0.9c0.8-0.8,0.9-2,0.2-2.9c-1-1.1-2.7-1.2-3.8-0.2c-0.1,0.1-0.1,0.1-0.2,0.2c-0.3,0.4-0.4,0.8-0.4,1.3
			C151,58.2,151,58.5,151.1,58.8z"/>
		<path class="st11" d="M152.9,62c0,0,0.5-1.8,2.7-1.1c3.3,1.1,4.8-0.2,4.8-0.2c-0.9,1.5-2.3,2.6-4,3.1
			C153,64.5,152.7,62.5,152.9,62z"/>
		<path class="st11" d="M152.5,56.9c0.3-0.4,1-0.1,0.8,0.4c-0.1,0.2,0.2,0.4,0.3,0.2c0.4-0.9-0.8-1.5-1.4-0.8
			C152.1,56.8,152.4,57.1,152.5,56.9z"/>
		<path class="st32" d="M152.9,47.6c-0.1,0-0.1-0.1-0.2-0.2l-0.5-0.7c-0.2-0.2-0.5-0.3-0.8-0.4h-0.9c-0.2,0-0.4-0.1-0.4-0.2
			c0-0.1,0-0.2,0.1-0.3l0.5-0.7c0.2-0.2,0.2-0.6,0.1-0.8l-0.3-0.8c-0.1-0.1-0.1-0.3,0-0.4c0.1-0.1,0.3-0.1,0.4-0.1l0.8,0.2
			c0.3,0.1,0.6,0,0.8-0.2l0.7-0.5c0.1-0.1,0.3-0.2,0.5,0c0.1,0.1,0.1,0.2,0.1,0.3v0.9c0,0.3,0.2,0.6,0.4,0.7l0.7,0.5
			c0.2,0.1,0.2,0.3,0.2,0.3s0,0.2-0.3,0.3l-0.8,0.3c-0.3,0.1-0.5,0.3-0.6,0.6l-0.2,0.8c0,0.1-0.1,0.2-0.2,0.3
			C153,47.5,152.9,47.6,152.9,47.6z"/>
		<path class="st17" d="M297,104.9c-0.1,0-0.2,0-0.2,0l-0.8-0.3c-0.3-0.1-0.6,0-0.8,0.2l-0.7,0.5c-0.1,0.1-0.3,0.1-0.4,0.1
			c-0.1-0.1-0.1-0.2-0.1-0.3v-0.9c0-0.3-0.2-0.6-0.4-0.7l-0.7-0.5c-0.2-0.1-0.2-0.3-0.2-0.3s0-0.2,0.3-0.3l0.8-0.3
			c0.3-0.1,0.5-0.3,0.6-0.6l0.2-0.8c0-0.1,0.1-0.3,0.3-0.3c0.1,0,0.3,0.1,0.4,0.2l0.5,0.7c0.2,0.2,0.5,0.3,0.8,0.4h0.9
			c0.1,0,0.3,0,0.4,0.2c0.1,0.1,0,0.3-0.1,0.4l-0.5,0.7c-0.2,0.2-0.2,0.6-0.1,0.8l0.3,0.8c0,0.1,0,0.2,0,0.3
			C297.1,104.9,297.1,104.9,297,104.9z"/>
		<path class="st32" d="M248.7,51.8c-0.1,0-0.2,0-0.3,0l-1.1-0.3c-0.4-0.1-0.8,0-1.1,0.2l-0.9,0.7c-0.2,0.2-0.4,0.2-0.6,0.1
			c-0.1-0.1-0.2-0.3-0.2-0.4v-1.2c0-0.4-0.2-0.8-0.5-1l-1-0.6c-0.2-0.1-0.3-0.3-0.3-0.5c0-0.1,0.1-0.3,0.4-0.4l1.1-0.4
			c0.4-0.1,0.6-0.4,0.8-0.8l0.3-1.1c0.1-0.3,0.2-0.4,0.4-0.4s0.3,0,0.5,0.2l0.7,0.9c0.2,0.3,0.6,0.5,1,0.5h1.2
			c0.2,0,0.4,0.1,0.5,0.2c0.1,0.2,0,0.4-0.1,0.5l-0.7,1c-0.2,0.3-0.3,0.7-0.1,1.1l0.4,1.1c0.1,0.1,0.1,0.3,0,0.5
			C248.9,51.8,248.8,51.8,248.7,51.8z"/>
		<path class="st33" d="M166.3,103.4c-0.1,0-0.2,0-0.2-0.1l-0.8-0.5c-0.3-0.1-0.6-0.2-0.9-0.1l-0.8,0.3c-0.1,0.1-0.3,0.1-0.5-0.1
			c-0.1-0.1-0.1-0.2,0-0.4l0.2-0.9c0.1-0.3,0-0.6-0.2-0.8l-0.6-0.7c-0.1-0.1-0.2-0.3,0-0.5c0.1-0.1,0.2-0.1,0.3-0.1h0.9
			c0.3,0,0.6-0.2,0.8-0.4l0.5-0.8c0.1-0.1,0.2-0.2,0.4-0.2c0.1,0,0.2,0,0.3,0.3l0.3,0.8c0.1,0.3,0.4,0.5,0.6,0.6l0.9,0.2
			c0.2,0.1,0.3,0.2,0.3,0.3c0,0.1,0,0.3-0.2,0.4l-0.7,0.6c-0.2,0.2-0.4,0.5-0.4,0.8l0.1,0.9c0,0.1,0,0.3-0.1,0.3
			C166.5,103.5,166.4,103.5,166.3,103.4z"/>
		<path class="st17" d="M258.5,77.8c-0.1,0-0.1-0.1-0.2-0.2l-0.5-0.8c-0.2-0.3-0.4-0.4-0.7-0.5l-0.9-0.1c-0.2,0-0.4-0.1-0.4-0.3
			c0-0.1,0-0.3,0.1-0.3l0.6-0.7c0.2-0.2,0.3-0.5,0.2-0.8l-0.2-0.9c-0.1-0.1,0-0.3,0.1-0.4c0.1-0.1,0.3-0.1,0.4,0l0.8,0.4
			c0.3,0.1,0.6,0.1,0.9,0l0.8-0.5c0.1-0.1,0.3-0.1,0.4,0c0.1,0.1,0.2,0.2,0.1,0.4l-0.1,0.9c0,0.3,0.1,0.6,0.3,0.8l0.7,0.6
			c0.1,0.1,0.2,0.2,0.2,0.4c0,0.1-0.1,0.2-0.3,0.2l-0.9,0.2c-0.3,0.1-0.5,0.3-0.7,0.6l-0.4,0.8c0,0.1-0.1,0.2-0.2,0.3
			C258.7,77.9,258.6,77.9,258.5,77.8z"/>
		<path class="st17" d="M302.2,63.3c-0.1,0-0.1,0-0.2,0l-0.7-0.3c-0.2-0.1-0.5-0.1-0.7,0l-0.6,0.4c-0.2,0.1-0.3,0.1-0.4,0
			c-0.1-0.1-0.1-0.2-0.1-0.3l0.1-0.8c0-0.3-0.1-0.5-0.3-0.7l-0.6-0.5c-0.1-0.1-0.1-0.3-0.1-0.3c0-0.1,0.2-0.2,0.3-0.2l0.8-0.1
			c0.2-0.1,0.5-0.2,0.6-0.5l0.3-0.7c0-0.1,0.1-0.2,0.3-0.2c0.1,0,0.2,0,0.3,0.2l0.4,0.7c0.1,0.2,0.4,0.4,0.6,0.4l0.8,0.1
			c0.2,0,0.3,0.1,0.3,0.2c0,0.1,0,0.2-0.1,0.3l-0.5,0.5c-0.2,0.2-0.2,0.5-0.2,0.7l0.2,0.7c0,0.1,0,0.2,0,0.3
			C302.4,63.2,302.3,63.3,302.2,63.3z"/>
		<path class="st33" d="M189,69.8c-0.1,0-0.1-0.1-0.1-0.1l-0.4-0.6c-0.2-0.2-0.4-0.3-0.6-0.3H187c-0.1,0-0.3-0.1-0.3-0.2
			c0-0.1,0-0.2,0.1-0.3l0.5-0.6c0.1-0.2,0.2-0.5,0.1-0.7l-0.2-0.7c-0.1-0.1-0.1-0.2,0-0.3c0,0,0.1-0.1,0.4,0l0.7,0.3
			c0.2,0.1,0.5,0,0.7-0.1l0.6-0.4c0.2-0.1,0.3-0.1,0.3,0c0.1,0.1,0.2,0.2,0.1,0.3v0.8c0,0.3,0.1,0.5,0.3,0.7l0.6,0.5
			c0.2,0.1,0.2,0.2,0.1,0.3s-0.1,0.2-0.3,0.2l-0.7,0.2c-0.2,0.1-0.4,0.3-0.5,0.5l-0.2,0.7c0,0.1-0.1,0.2-0.2,0.2
			C189.1,69.9,189,69.9,189,69.8z"/>
		<path class="st34" d="M248.5,116.7c-0.1,0-0.1-0.1-0.1-0.2l-0.4-0.6c-0.2-0.2-0.4-0.3-0.6-0.3h-0.8c-0.2,0-0.3-0.1-0.3-0.2
			c0-0.1,0-0.2,0.1-0.3l0.5-0.6c0.2-0.2,0.2-0.5,0.1-0.7l-0.2-0.7c-0.1-0.1,0-0.3,0.1-0.3c0.1-0.1,0.2-0.1,0.3,0l0.7,0.3
			c0.2,0.1,0.5,0,0.7-0.1l0.6-0.4c0.1-0.1,0.2-0.1,0.4-0.1c0.1,0.1,0.2,0.2,0.1,0.3v0.8c0,0.3,0.1,0.5,0.3,0.7l0.6,0.5
			c0.2,0.1,0.2,0.2,0.2,0.3s-0.1,0.2-0.3,0.2l-0.7,0.2c-0.2,0.1-0.4,0.3-0.5,0.5l-0.2,0.7c0,0.1-0.1,0.2-0.2,0.2
			C248.6,116.8,248.5,116.8,248.5,116.7z"/>
		<path class="st17" d="M268.2,100.7l-6.1-5.7c-0.1-0.2-0.3-0.4-0.5-0.5l-0.1-0.1v0.1l0,0c-1.2-0.3-2.9,2.2-3.6,5.6
			s-0.4,6.4,0.9,6.7h0.3l7.5,0.2L268.2,100.7z"/>
		<path class="st11" d="M266.2,103.5c-0.5,1.7-0.4,3.3,0.2,3.5s1.5-1.1,2-2.8s0.4-3.3-0.2-3.5S266.6,101.8,266.2,103.5z"/>
		<path class="st35" d="M268.8,80c-0.1,0.3-0.2,0.6-0.3,0.9c1.7-0.2,3.3-0.5,4.9-0.7c-0.3-0.3-0.7-0.5-1-0.8
			C271.2,79.6,270,79.8,268.8,80z"/>
		<path class="st35" d="M248.4,60.2c0.9,0.3,1.8,0.6,2.6,0.9c21.9,2.2,37.2,6.6,36.8,11.3c-0.1,1-0.9,2-2.3,2.8
			c0.5,0.4,1,0.8,1.4,1.3c2.7-1.2,4.2-2.6,4.4-4C291.7,67.2,273.7,62.3,248.4,60.2z"/>
		<path class="st35" d="M274.4,80c3.5-0.6,7-1.4,10.4-2.6c-0.3-0.4-0.6-0.9-0.9-1.2c-3.4,1.4-6.9,2.4-10.5,3L274.4,80z"/>
		<path class="st35" d="M279.6,84.3l-1.2,0.2c2.9,3.1,3.7,5.6,2.1,7.3c-2.1,2.1-7.7,2.5-15.5,1.5c0,0.2-0.1,0.4-0.1,0.7
			c9,1.3,15.4,0.9,17.7-1.4C284.3,90.8,283.1,87.8,279.6,84.3z"/>
		<path class="st35" d="M269.9,77.2c0,0-0.1,0.2-0.2,0.4c0.9,0.6,1.7,1.2,2.5,1.8c0.4,0.3,0.7,0.5,1,0.8c1.4,1,2.7,2.2,4,3.4
			c0.4-0.1,0.8-0.2,1.1-0.2c-1.3-1.2-2.7-2.3-4.1-3.3l-1.1-0.8c-2.4-1.7-5.2-3.5-8.3-5.3c0.2,0.2,0.4,0.4,0.6,0.6
			C266.9,75.7,268.3,76.6,269.9,77.2z"/>
		<path class="st35" d="M205.5,55.8c0.8-0.2,1.7-0.3,2.7-0.5c-12.7-1.1-23.7-1.1-31,0c0.2,0.3,0.5,0.7,0.8,1
			C184.2,55.2,194,55,205.5,55.8z"/>
		<path class="st35" d="M191.2,73.3c-8-2.6-14.1-5.3-17.7-7.8c-0.5,0.2-1,0.5-1.5,0.7c4.1,2.6,10.7,5.2,18.9,7.8
			C191,73.8,191.1,73.5,191.2,73.3z"/>
		<path class="st35" d="M170.4,60.1c0.7-1.5,2.9-2.6,6.3-3.4c-0.3-0.4-0.7-0.7-0.9-1.1c-4.6,0.8-7.6,2.1-8.4,3.9s0.4,3.5,3.1,5.6
			c0.5-0.2,1.1-0.5,1.7-0.7C170.4,62.9,169.7,61.4,170.4,60.1z"/>
		<path class="st35" d="M254.6,91.5h-0.1l-0.1,0.6h0.1c3.7,0.8,7.2,1.5,10.3,1.9c0-0.2,0.1-0.5,0.1-0.7
			C261.8,93,258.3,92.4,254.6,91.5z"/>
		<path class="st35" d="M257.8,81.2h-0.1c-0.1,0.2-0.2,0.5-0.3,0.8h0.2c3.9-0.3,7.6-0.7,11-1.1c0.1-0.3,0.2-0.6,0.3-0.9
			C265.5,80.5,261.8,80.9,257.8,81.2z"/>
		<path class="st35" d="M256.7,84.5h-0.2c-0.1,0.2-0.1,0.5-0.2,0.7h0.2c3.7,0.2,7.2,0.2,10.5,0.2c0.1-0.3,0.2-0.6,0.3-0.8
			C264,84.6,260.5,84.6,256.7,84.5z"/>
		<path class="st35" d="M219.7,54.9l1.9,0.1c-23.1-7.6-42.7-10.3-47.1-5.9c-1.5,1.5-1,3.8,1.2,6.5c0.3,0.3,0.6,0.7,0.9,1.1
			c1.8,1.9,3.8,3.6,5.9,5.1l1.1,0.8c2.6,1.9,5.7,3.8,9.2,5.8l0.2-0.6c-2.9-1.7-5.7-3.5-8.4-5.4l-1-0.8c-2.1-1.5-4-3.3-5.7-5.2
			c-0.3-0.3-0.6-0.7-0.8-1c-1.6-2.2-1.9-4.1-0.5-5.4C180.6,45.9,198.4,48.2,219.7,54.9z"/>
		<path class="st36" d="M218.3,80l-2.4-0.5l2.9,1.2l2.4,0.4l-2-0.8L218.3,80z"/>
		<path class="st35" d="M286.9,76.5c-0.4-0.5-0.9-0.9-1.4-1.3c-4.7-3.7-15-7.8-28.6-11.5c0.8,0.4,1.5,0.9,2.1,1.3
			c12.5,3.6,21.6,7.6,24.9,11.1c0.4,0.4,0.7,0.8,0.9,1.2c0.5,0.7,0.6,1.7,0.2,2.5c-0.7,1.5-3,2.6-6.5,3.4c-0.4,0.1-0.8,0.2-1.1,0.2
			c-3.3,0.6-6.7,0.9-10.1,1c-0.1,0.3-0.2,0.6-0.3,0.8c3.8,0,7.6-0.3,11.4-0.8l1.2-0.2c4.6-0.8,7.6-2.1,8.5-3.9
			C288.6,79.2,288.1,77.9,286.9,76.5z"/>
		<path class="st35" d="M183.7,61.6l1,0.8c3.6-0.7,7.6-1.2,12.1-1.6c0.2-0.3,0.4-0.6,0.6-0.8C192.3,60.4,187.7,61,183.7,61.6z"/>
		<path class="st35" d="M169.2,69.4c0.1-1.1,1.1-2.2,2.9-3.2c0.5-0.3,1-0.5,1.5-0.7c3.3-1.3,6.7-2.3,10.2-2.9l-1.1-0.8
			c-3.6,0.6-7.1,1.5-10.5,2.6c-0.6,0.2-1.2,0.4-1.7,0.7c-2.9,1.3-4.6,2.7-4.7,4.2c-0.3,3.8,9.1,7.5,24,10c0-0.3,0.1-0.6,0.2-0.8
			C177,76.1,168.9,72.8,169.2,69.4z"/>
		<path class="st35" d="M218.3,80c-8.7-3.5-17.1-7.5-25.2-12.2l-0.2,0.6c7.4,4.2,15.1,7.9,23,11.1L218.3,80z"/>
		<path class="st35" d="M221.1,81.1l-2.4-0.4h0.1c0.9,0.4,1.9,0.8,2.8,1.1l1.5,0.1L221.1,81.1z"/>
		<path class="st35" d="M225,82.6h-1.5c10,3.9,20.3,7.1,30.8,9.5l0.1-0.6C244.5,89.3,234.6,86.3,225,82.6z"/>
		<path class="st35" d="M191.2,73.3c-0.1,0.2-0.1,0.5-0.2,0.7c9.1,2.8,18.4,5,27.7,6.7l-2.9-1.2C207.5,77.9,199.3,75.8,191.2,73.3z"
			/>
		<path class="st35" d="M226.3,82h1.2l3.5,0.1c-2.8-0.4-5.6-0.8-8.4-1.3c-1.5-0.2-2.9-0.5-4.4-0.8l0.9,0.4l2,0.8l1.2,0.2L226.3,82z"
			/>
		<path class="st35" d="M236.2,82.8h-4.9c8.9,1.3,17.4,2.1,24.9,2.4c0.1-0.2,0.1-0.5,0.2-0.7C250.3,84.2,243.5,83.7,236.2,82.8z"/>
		<path class="st35" d="M231.3,82.7c-1.7-0.2-3.3-0.5-5-0.8l-3.2-0.1l1.9,0.7l2.5,0.1C228.8,82.7,230,82.7,231.3,82.7z"/>
		<path class="st35" d="M221.6,81.8c-10.6-0.4-21.2-1.5-31.7-3.3c-0.1,0.3-0.1,0.5-0.2,0.8c11.2,1.8,22.5,2.9,33.8,3.2L221.6,81.8z"
			/>
		<path class="st35" d="M257.6,81.3c-7.9,0.7-16.9,1-26.6,0.8c1.7,0.2,3.5,0.5,5.1,0.7c7.5,0,14.7-0.3,21.1-0.8
			C257.4,81.8,257.5,81.5,257.6,81.3z"/>
		<path class="st35" d="M223.1,81.9l-1.5-0.1l1.9,0.7h1.5L223.1,81.9z"/>
		<path class="st35" d="M227.5,82h-1.2c1.7,0.3,3.4,0.5,5,0.8h4.9c-1.7-0.2-3.4-0.4-5.1-0.7L227.5,82z"/>
		<path class="st28" d="M199.5,83.4c-0.3-0.4-0.8-0.5-1.2-0.2l-3.2,2.3l-1.7-3.5c-0.2-0.4-0.7-0.6-1.2-0.4c-0.4,0.2-0.6,0.7-0.4,1.2
			l1.9,3.8l-3.4,2.4c-0.4,0.3-0.5,0.8-0.2,1.2c0.2,0.3,0.5,0.4,0.8,0.4c0.2,0,0.3-0.1,0.4-0.2l3.2-2.3l1.7,3.5
			c0.2,0.3,0.5,0.5,0.9,0.5c0.1,0,0.2,0,0.3-0.1c0.4-0.2,0.6-0.7,0.4-1.1c0,0,0,0,0,0l-1.8-3.8l3.4-2.4
			C199.6,84.3,199.7,83.7,199.5,83.4z"/>
		<path class="st28" d="M249.2,98.7l-4.4-8.9c-0.2-0.4-0.7-0.6-1.2-0.4c-0.4,0.2-0.6,0.7-0.4,1.2c0,0,0,0,0,0l4.4,8.9
			c0.2,0.3,0.5,0.5,0.9,0.5c0.1,0,0.2,0,0.3-0.1C249.2,99.6,249.4,99.1,249.2,98.7z"/>
		<path class="st28" d="M251,91.3c-0.3-0.4-0.8-0.5-1.2-0.2c0,0,0,0,0,0l-8,5.8c-0.4,0.3-0.5,0.8-0.2,1.2c0.2,0.3,0.5,0.4,0.8,0.4
			c0.2,0,0.3-0.1,0.4-0.2l8-5.8C251.2,92.2,251.3,91.7,251,91.3z"/>
		<path class="st17" d="M175.1,85.1c-0.7-0.2-1.7,1.3-2.2,3.3s-0.3,3.8,0.4,4s1.7-1.4,2.2-3.4S175.8,85.2,175.1,85.1z"/>
		<path class="st17" d="M274.3,100.2c-0.7,0.2-0.9,1.9-0.5,4s1.4,3.6,2.1,3.4s0.9-1.9,0.5-4S275,100,274.3,100.2z"/>
		
			<linearGradient id="SVGID_22_" gradientUnits="userSpaceOnUse" x1="247.0157" y1="158.04" x2="258.2544" y2="158.04" gradientTransform="matrix(1 0 0 -1 0 366)">
			<stop  offset="0.15" style="stop-color:#FFB846"/>
			<stop  offset="0.79" style="stop-color:#FF9D28"/>
		</linearGradient>
		<path class="st37" d="M258.2,207.4c0.2,2.3-2.1,4.4-5.2,4.7s-5.8-1.3-6-3.6s2.1-4.4,5.2-4.7S258,205.1,258.2,207.4z"/>
		
			<linearGradient id="SVGID_23_" gradientUnits="userSpaceOnUse" x1="155.4161" y1="171.9658" x2="166.2576" y2="171.9658" gradientTransform="matrix(1 0 0 -1 0 366)">
			<stop  offset="0.15" style="stop-color:#FFB846"/>
			<stop  offset="0.79" style="stop-color:#FF9D28"/>
		</linearGradient>
		<path class="st38" d="M166,196.2c-0.9,2.1-4,2.8-6.8,1.6s-4.4-3.9-3.5-6s4-2.8,6.8-1.6S166.9,194.1,166,196.2z"/>
		
			<linearGradient id="SVGID_24_" gradientUnits="userSpaceOnUse" x1="165.1362" y1="148.643" x2="174.2861" y2="148.643" gradientTransform="matrix(1 0 0 -1 0 366)">
			<stop  offset="0.15" style="stop-color:#FFB846"/>
			<stop  offset="0.79" style="stop-color:#FF9D28"/>
		</linearGradient>
		<path class="st39" d="M171.9,220.1c-2.2,1.7-5,1.9-6.2,0.3s-0.3-4.2,1.9-5.9s5-1.9,6.2-0.3S174.1,218.4,171.9,220.1z"/>
		
			<linearGradient id="SVGID_25_" gradientUnits="userSpaceOnUse" x1="202.3521" y1="132.364" x2="212.9307" y2="132.364" gradientTransform="matrix(1 0 0 -1 -8.127227e-03 366.0021)">
			<stop  offset="0.15" style="stop-color:#FFB846"/>
			<stop  offset="0.79" style="stop-color:#FF9D28"/>
		</linearGradient>
		<path class="st40" d="M205.2,230.4c2.6-2,5.8-2.2,7.2-0.4c1.4,1.8,0.4,4.8-2.2,6.8c-2.6,2-5.8,2.2-7.2,0.4
			C201.6,235.5,202.6,232.4,205.2,230.4z"/>
		<g class="st41">
			
				<image style="overflow:visible;enable-background:new    ;" width="513" height="459" xlink:href="208E0149F552A2CA.png"  transform="matrix(0.2395 0 0 0.2395 245.2041 99.24)">
			</image>
		</g>
		
			<linearGradient id="SVGID_26_" gradientUnits="userSpaceOnUse" x1="1626.4563" y1="-9207.4307" x2="1654.1963" y2="-9190.4102" gradientTransform="matrix(-1 0 0 1 1922.2 9368.0596)">
			<stop  offset="0" style="stop-color:#F1C13B"/>
			<stop  offset="1" style="stop-color:#FF1200"/>
		</linearGradient>
		<path class="st42" d="M304.1,153.1l17.3-14.1c1.6-1.1,4.1-0.3,5.6,1.8l0.4,0.5c1.5,2.1,1.3,4.8-0.3,5.9l-12,7.3
			c-0.1,0.1-0.3,0-0.4-0.1c0-0.1-0.1-0.2,0-0.3l0.4-0.9l-18.7,9.6c-0.1,0.1-0.3,0.1-0.4-0.1c-0.1-0.1-0.1-0.3,0.1-0.4l0,0l9.6-9
			l-1.1,0.2c-0.2,0-0.3-0.1-0.3-0.3C304.1,153.3,304.1,153.2,304.1,153.1z"/>
		<g class="st43">
			<path class="st44" d="M321.8,140.1c1.6-1.1,4.1-0.3,5.6,1.8l0.4,0.5c0.2,0.4,0.4,0.7,0.6,1.1c-0.1-0.8-0.5-1.5-0.9-2.2l-0.4-0.5
				c-1.5-2.1-4-2.9-5.6-1.8l-17.1,14c-0.2,0.1-0.2,0.3-0.1,0.5c0.1,0.1,0.2,0.2,0.4,0.1l0.8-0.2L321.8,140.1z"/>
			<path class="st44" d="M297.5,162.2l8.3-7.8l-1.9,0.4l-7.9,7.4c-0.1,0.1-0.1,0.3,0,0.4c0.1,0.1,0.3,0.1,0.4,0.1L297.5,162.2z"/>
		</g>
		<path class="st45" d="M327.5,147.4c0.3,0.4,0.9,0.5,1.3,0.1l1.4-1.1c2.7-2.1,3.1-5.9,1-8.6c0,0,0,0,0,0l0,0
			c-2.1-2.7-5.9-3.1-8.6-1c0,0,0,0,0,0l-1.4,1.1c-0.4,0.3-0.4,0.9-0.1,1.3L327.5,147.4z"/>
		<path class="st46" d="M328.6,147.4l-7.3-9.2c-0.3-0.3-0.2-0.8,0.1-1.1c0,0,0,0,0,0l0,0c0.3-0.3,0.8-0.2,1.1,0.1l7.3,9.2
			c0.3,0.3,0.2,0.8-0.1,1.1c0,0,0,0,0,0l0,0C329.3,147.8,328.8,147.7,328.6,147.4C328.6,147.4,328.6,147.4,328.6,147.4z"/>
		
			<rect x="327.1" y="124.2" transform="matrix(0.7833 -0.6217 0.6217 0.7833 -8.1015 239.539)" class="st47" width="24.8" height="14.4"/>
		<path class="st46" d="M356.9,120.6c0.4-0.9,0.3-2-0.4-2.7c-0.6-0.8-1.6-1.2-2.6-1l-9.3,1.2l4.5,5.6l4.5,5.6L356.9,120.6z"/>
		<path class="st46" d="M335.3,146c-0.4,0.3-0.9,0.2-1.2-0.1l-9.9-12.5c-0.3-0.4-0.2-0.9,0.1-1.2l0,0c0.4-0.3,0.9-0.2,1.2,0.1
			l9.9,12.5C335.8,145.2,335.7,145.7,335.3,146L335.3,146z"/>
		<path class="st46" d="M345.3,133.2c-2.2,1.7-5.4,1.4-7.1-0.8c-1.7-2.2-1.4-5.4,0.8-7.1c2.2-1.7,5.4-1.4,7.1,0.8c0,0,0,0,0,0
			C347.9,128.3,347.5,131.5,345.3,133.2z"/>
		
			<rect x="331.9" y="129.6" transform="matrix(0.7833 -0.6217 0.6217 0.7833 -12.9686 236.4572)" class="st46" width="1.6" height="14.4"/>
		<path class="st45" d="M336.2,124.8l-8.9-1.3c-1.2-0.2-2.5,0.2-3.5,1l-7,5.5l8.1-0.1c1.1,0.1,2.1,0.7,2.8,1.6L336.2,124.8z"/>
		<path class="st46" d="M316.9,132.1L316.9,132.1c-0.5-0.7-0.4-1.7,0.2-2.2c0,0,0,0,0,0l7-5.6c1-0.7,2.3-1,3.5-0.8L316.9,132.1z"/>
		<path class="st46" d="M332.1,124.2l-7.2,5.7h0.2c0.2,0,0.5,0.1,0.7,0.1l7.2-5.7L332.1,124.2z"/>
		<path class="st45" d="M345.2,136.1l-0.8,8.9c-0.1,1.2-0.8,2.4-1.7,3.1l-7,5.5l2-7.9c0.2-1.1-0.1-2.2-0.9-3.1L345.2,136.1z"/>
		<path class="st46" d="M333.7,153.3L333.7,153.3c0.5,0.7,1.5,0.8,2.2,0.3l7-5.6c0.9-0.8,1.5-2,1.6-3.2L333.7,153.3z"/>
		<path class="st46" d="M344.9,139.4l-7.2,5.7c0,0.2,0,0.5,0,0.7v0.1l7.2-5.7L344.9,139.4z"/>
		<path class="st48" d="M345,132.1c-1.5,1.6-4.1,1.6-5.7,0.1c-1.6-1.5-1.6-4.1-0.1-5.7c1.5-1.6,4.1-1.6,5.7-0.1
			c0.2,0.2,0.4,0.4,0.5,0.6C346.5,128.6,346.3,130.7,345,132.1z"/>
		<path class="st49" d="M343.6,126.5c0.1,0,0.2,0.1,0.2,0.1"/>
		<path class="st49" d="M341,126.4c0.7-0.3,1.5-0.3,2.2-0.1"/>
		<path class="st50" d="M191.3,199.7c-1.1-1-2.2-2-3.3-3.1c-0.1-0.1-0.2-0.1-0.3-0.2c-1.3-0.5-2.7-1.1-4-1.7
			c-0.2-0.1-0.5-0.1-0.5,0.1c-0.3,0.7-0.7,1.4-1,2.1c-0.6,1.3-0.6,2.8-0.2,4.1c0.3,1.3,0.9,2.6,1.7,3.7c0.1,0.1,0.1,0.2,0.2,0.2
			c0.1,0.1,0.2,0.1,0.2,0.1c1.1,0.3,2.3,0.4,3.4,0.1c1.3-0.4,2.3-1.3,2.9-2.5l1.1-2.3C191.5,200.1,191.5,199.8,191.3,199.7z
			 M187.5,203.9l-1-0.7c0.4-0.8,0.7-1.6,1.1-2.4h0c-0.5,0.4-1.1,0.8-1.7,1.1l-0.6-0.5c0-0.8-0.1-1.6-0.1-2.3h0l-1.1,2.3l-1-0.8
			c0.6-1.3,1.2-2.5,1.8-3.8c0.4,0.3,0.8,0.6,1.2,0.9c0,0.9,0.1,1.9,0.1,2.8l0,0c0.7-0.4,1.3-0.9,2-1.4c0.4,0.3,0.8,0.5,1.2,0.8
			L187.5,203.9z"/>
		<path class="st50" d="M191.4,207.2l2.1-4.6l1.1,0.6l0.1,3.6l0,0c0.9-0.8,1.8-1.5,2.7-2.3l1.1,0.5c-0.7,1.6-1.4,3.2-2.1,4.8
			c-0.3-0.1-0.6-0.3-1-0.4c0.5-1,0.9-2.1,1.3-3.1l0,0c-0.7,0.6-1.5,1.3-2.2,1.9l-0.7-0.3l-0.1-3l0,0c-0.5,1-0.9,2-1.3,3L191.4,207.2
			z"/>
		<path class="st50" d="M197.7,208.5l0.4-0.9c0.6,0.3,1.2,0.5,1.9,0.8l-0.4,0.9C198.9,209,198.3,208.7,197.7,208.5z"/>
		<path class="st50" d="M199.5,211.1c0.7-1.6,1.4-3.3,2.1-5c1.1,0.4,2.1,0.7,3.2,1l-0.4,0.9c-0.7-0.2-1.4-0.4-2.2-0.7l-0.5,1.4
			l2,0.6l-0.4,0.9c-0.7-0.2-1.3-0.4-2-0.6l-0.8,2L199.5,211.1z"/>
		<path class="st50" d="M206.7,213.3c-1-0.2-2.1-0.5-3.1-0.8c0.7-1.7,1.4-3.4,2.1-5.2l1,0.3c-0.6,1.4-1.1,2.9-1.7,4.3
			c0.7,0.2,1.4,0.4,2.1,0.5C207,212.7,206.9,213,206.7,213.3z"/>
		<path class="st50" d="M207.3,213.4c0.7-1.8,1.3-3.5,2-5.3l1,0.2c-0.7,1.8-1.3,3.6-2,5.4L207.3,213.4z"/>
		<path class="st50" d="M213,211.5c0.2,1,0.3,1.9,0.5,2.9l-1.2-0.1c-0.1-0.7-0.2-1.4-0.3-2h0c-0.6,0.6-1.1,1.2-1.7,1.8l-1.1-0.2
			c0.8-0.8,1.7-1.6,2.5-2.5c-0.2-1-0.3-1.9-0.5-2.9l1.2,0.1c0.1,0.7,0.2,1.4,0.2,2.1h0c0.5-0.6,1.1-1.2,1.6-1.9l1.1,0.1
			C214.7,209.7,213.9,210.6,213,211.5z"/>
		<path class="st51" d="M37.1,186.6v-12.4H15.9V170l20.4-29.2H43v28.4h6.4v4.9H43v12.4L37.1,186.6z M37.1,169.2V154
			c0-2.4,0.1-4.8,0.2-7.2h-0.2c-1.4,2.7-2.5,4.6-3.8,6.8l-11.2,15.5v0.1H37.1z"/>
		<path class="st51" d="M84.4,163.2c0,15.6-5.8,24.1-15.9,24.1c-8.9,0-15-8.4-15.1-23.5c0-15.3,6.6-23.8,15.9-23.8
			C79,140.1,84.4,148.6,84.4,163.2z M59.6,163.9c0,11.9,3.7,18.6,9.3,18.6c6.3,0,9.4-7.4,9.4-19.1c0-11.3-2.9-18.6-9.3-18.6
			C63.6,144.8,59.6,151.4,59.6,163.9L59.6,163.9z"/>
		<path class="st51" d="M109.3,186.6v-12.4H88V170l20.4-29.2h6.7v28.4h6.4v4.9h-6.4v12.4L109.3,186.6z M109.3,169.2V154
			c0-2.4,0.1-4.8,0.2-7.2h-0.2c-1.4,2.7-2.5,4.6-3.8,6.8l-11.2,15.5v0.1H109.3z"/>
		<path class="st50" d="M27.3,212.2H16.8v9.7h11.7v2.9H13.3v-27h14.6v2.9H16.8v8.5h10.5L27.3,212.2z"/>
		<path class="st50" d="M33,198.2c2.2-0.4,4.4-0.6,6.7-0.6c3.7,0,6.1,0.7,7.8,2.2c1.4,1.3,2.2,3.2,2.1,5.1c0,3.2-2,6-5.1,6.9v0.1
			c2.1,0.7,3.3,2.6,4,5.4c0.5,2.5,1.2,5,2.1,7.4H47c-0.8-2.1-1.4-4.2-1.8-6.4c-0.8-3.7-2.2-5.1-5.4-5.2h-3.3v11.7H33V198.2z
			 M36.5,210.5h3.6c3.7,0,6.1-2.1,6.1-5.1c0-3.5-2.5-5-6.2-5.1c-1.2,0-2.3,0.1-3.4,0.3V210.5z"/>
		<path class="st50" d="M54.6,198.2c2.2-0.4,4.4-0.6,6.7-0.6c3.7,0,6.1,0.7,7.8,2.2c1.4,1.3,2.2,3.2,2.1,5.1c0,3.2-2,6-5.1,6.9v0.1
			c2.1,0.7,3.3,2.6,4,5.4c0.5,2.5,1.2,5,2.1,7.4h-3.6c-0.8-2.1-1.4-4.2-1.8-6.4c-0.8-3.7-2.2-5.1-5.4-5.2h-3.3v11.7h-3.5L54.6,198.2
			z M58.1,210.5h3.6c3.7,0,6.1-2.1,6.1-5.1c0-3.5-2.5-5-6.2-5.1c-1.2,0-2.3,0.1-3.4,0.3L58.1,210.5z"/>
		<path class="st50" d="M99.3,211.1c0,9.3-5.6,14.2-12.5,14.2c-7.1,0-12.1-5.5-12.1-13.7c0-8.6,5.3-14.2,12.5-14.2
			C94.6,197.4,99.3,203,99.3,211.1z M78.3,211.5c0,5.8,3.1,10.9,8.6,10.9s8.6-5.1,8.6-11.2c0-5.4-2.8-11-8.6-11
			S78.4,205.6,78.3,211.5L78.3,211.5z"/>
		<path class="st50" d="M103.9,198.2c2.2-0.4,4.4-0.6,6.7-0.6c3.7,0,6.1,0.7,7.8,2.2c1.4,1.3,2.2,3.2,2.1,5.1c0,3.2-2,6-5.1,6.9v0.1
			c2.1,0.7,3.3,2.6,4,5.4c0.5,2.5,1.2,5,2.1,7.4h-3.6c-0.8-2.1-1.4-4.2-1.8-6.4c-0.8-3.7-2.2-5.1-5.4-5.2h-3.3v11.7h-3.5
			L103.9,198.2z M107.3,210.5h3.6c3.7,0,6.1-2.1,6.1-5.1c0-3.5-2.5-5-6.2-5.1c-1.2,0-2.3,0.1-3.4,0.3L107.3,210.5z"/>
	</g>
</g>
</svg>
