<svg id="Layer_1" data-name="Layer 1" xmlns="http://www.w3.org/2000/svg" viewBox="0 0 24.98 38.7"><defs><style>.cls-1{fill:gray;}</style></defs><title>icon</title><path class="cls-1" d="M13.26,0c.91.17,1.84.27,2.73.52a12.13,12.13,0,0,1,6.22,4.14,12.13,12.13,0,0,1,2.47,5.16,12.08,12.08,0,0,1-.78,7.68,12.23,12.23,0,0,1-6.29,6.33,11.73,11.73,0,0,1-7.19.92A12,12,0,0,1,.64,16.19a11.91,11.91,0,0,1,2.59-12A12,12,0,0,1,10,.27C10.55.14,11.15.09,11.75,0Zm.38,20.32c0-.68,0-1.33,0-2a.55.55,0,0,1,.37-.59,3.21,3.21,0,0,0,1.89-2.95,3.27,3.27,0,0,0-1.74-3,4,4,0,0,0-1.73-.45,1.13,1.13,0,0,1-1.05-1.1,1.14,1.14,0,0,1,1-1.14,1.12,1.12,0,0,1,1.26.83c0,.09.05.18.08.28h2.1l.1,0a3.24,3.24,0,0,0-1.9-3,.49.49,0,0,1-.34-.54c0-.66,0-1.32,0-2H11.37c0,.68,0,1.33,0,2a.51.51,0,0,1-.36.56,3.21,3.21,0,0,0-1.9,3,3.25,3.25,0,0,0,1.72,3,4.06,4.06,0,0,0,1.77.47,1.13,1.13,0,0,1,1,1.11,1.15,1.15,0,0,1-1,1.13A1.14,1.14,0,0,1,11.42,15a2.86,2.86,0,0,1-.07-.28H9.1a3.37,3.37,0,0,0,1.89,3,.57.57,0,0,1,.39.62c0,.64,0,1.29,0,1.95Z"/><path class="cls-1" d="M12.51,38.7,5.62,29.49H9.09V26.9c1.17.1,2.3.29,3.43.29s2.24-.19,3.39-.29v2.58H19.4C17.08,32.58,14.81,35.61,12.51,38.7Z"/></svg>