<svg id="Layer_1" data-name="Layer 1" xmlns="http://www.w3.org/2000/svg" viewBox="0 0 166.92 215.77"><defs><style>.cls-1{fill:#fff;stroke:#4d4d4d;stroke-miterlimit:10;stroke-width:0.31px;}.cls-2{font-size:20px;fill:#666;font-family:SanFranciscoDisplay-Regular, San Francisco Display;}.cls-3{letter-spacing:-0.01em;}.cls-4{letter-spacing:-0.01em;}.cls-5{letter-spacing:0.04em;}.cls-6{letter-spacing:0.01em;}.cls-7{fill:#4d4d4d;}</style></defs><title>video</title><rect class="cls-1" x="0.16" y="0.16" width="166.6" height="215.46" rx="5.71" ry="5.71"/><text class="cls-2" transform="translate(40.72 127.32)"><tspan class="cls-3">F</tspan><tspan x="9.75" y="0">ullscreen</tspan><tspan class="cls-4" x="-14.26" y="24">P</tspan><tspan x="-3.26" y="24">o</tspan><tspan class="cls-5" x="7.48" y="24">r</tspan><tspan x="14.96" y="24">trait </tspan><tspan class="cls-6" x="53.55" y="24">V</tspan><tspan x="65.23" y="24">ideo</tspan></text><path class="cls-7" d="M101.84,75.07h-34a1.69,1.69,0,0,0-1.69,1.69V97.29A1.69,1.69,0,0,0,67.79,99h34.05a1.69,1.69,0,0,0,1.69-1.69V76.76A1.68,1.68,0,0,0,101.84,75.07ZM81.12,91.7v-10a.53.53,0,0,1,.79-.46l8.62,5a.53.53,0,0,1,0,.91l-8.62,5A.53.53,0,0,1,81.12,91.7Z"/></svg>