<svg id="Layer_1" data-name="Layer 1" xmlns="http://www.w3.org/2000/svg" viewBox="0 0 166.92 215.77"><defs><style>.cls-1{fill:#fff;stroke:#4d4d4d;stroke-miterlimit:10;stroke-width:0.31px;}.cls-2{fill:#e8e8e8;}.cls-3{font-size:20px;fill:#666;font-family:SanFranciscoDisplay-Regular, San Francisco Display;}.cls-4{letter-spacing:-0.01em;}.cls-5{letter-spacing:0em;}.cls-6{letter-spacing:0.01em;}.cls-7{fill:#4d4d4d;}</style></defs><title>video</title><rect class="cls-1" x="0.16" y="0.16" width="166.6" height="215.46" rx="5.71" ry="5.71"/><rect class="cls-2" x="0.33" y="57.45" width="166.26" height="101.5"/><text class="cls-3" transform="translate(39.36 123.38)"><tspan class="cls-4">F</tspan><tspan x="9.75" y="0">ullscreen</tspan><tspan class="cls-5" x="-29.08" y="24">L</tspan><tspan x="-19.48" y="24">an</tspan><tspan class="cls-6" x="1.94" y="24">d</tspan><tspan x="13.19" y="24">scape </tspan><tspan class="cls-6" x="68.37" y="24">V</tspan><tspan x="80.05" y="24">ideo</tspan></text><path class="cls-7" d="M100,75.43H65.94a1.69,1.69,0,0,0-1.69,1.69V97.67a1.69,1.69,0,0,0,1.69,1.69H100a1.69,1.69,0,0,0,1.69-1.69V77.12A1.69,1.69,0,0,0,100,75.43ZM79.28,92.08v-10a.52.52,0,0,1,.78-.46l8.64,5a.53.53,0,0,1,0,.91l-8.64,5A.52.52,0,0,1,79.28,92.08Z"/></svg>