<svg id="Layer_1" data-name="Layer 1" xmlns="http://www.w3.org/2000/svg" viewBox="0 0 167.85 216.7"><defs><style>.cls-1{fill:#fff;}.cls-2{fill:none;stroke:#4d4d4d;stroke-miterlimit:10;stroke-width:0.31px;}.cls-3{font-size:20px;fill:#666;font-family:SanFranciscoDisplay-Regular, San Francisco Display;}.cls-4{letter-spacing:-0.04em;}.cls-5{letter-spacing:-0.01em;}.cls-6{fill:#e8e8e8;}.cls-7{fill:#4d4d4d;}</style></defs><title>video</title><rect class="cls-1" x="0.62" y="0.62" width="166.6" height="215.46" rx="5.71" ry="5.71"/><rect class="cls-2" x="0.62" y="0.62" width="166.6" height="215.46" rx="5.71" ry="5.71"/><text class="cls-3" transform="translate(33.41 35.94)">Banner <tspan class="cls-4" x="65.5" y="0">T</tspan><tspan class="cls-5" x="74.81" y="0">e</tspan><tspan x="85.01" y="0">xt</tspan></text><text class="cls-3" transform="translate(33.41 192.24)">Banner <tspan class="cls-4" x="65.5" y="0">T</tspan><tspan class="cls-5" x="74.81" y="0">e</tspan><tspan x="85.01" y="0">xt</tspan></text><rect class="cls-6" x="6.24" y="57.6" width="155.37" height="101.5" rx="4.83" ry="4.83"/><path class="cls-7" d="M101,96.39h-34a1.69,1.69,0,0,0-1.69,1.69v20.54a1.69,1.69,0,0,0,1.69,1.69H101a1.69,1.69,0,0,0,1.69-1.69V98.08A1.69,1.69,0,0,0,101,96.39ZM80.22,113v-10a.53.53,0,0,1,.79-.46l8.63,5a.53.53,0,0,1,0,.91l-8.63,5A.53.53,0,0,1,80.22,113Z"/></svg>