<svg id="Layer_1" data-name="Layer 1" xmlns="http://www.w3.org/2000/svg" viewBox="0 0 148.96 43.94"><defs><style>.cls-1{fill:#4d4d4d;}</style></defs><title>logo-m-flix--den</title><path class="cls-1" d="M36.25,4.38,19.62.08a2.68,2.68,0,0,0-1.32,0L1.68,4.38A2.12,2.12,0,0,0,0,6.35V17.8A26.65,26.65,0,0,0,6,34.58a32.55,32.55,0,0,0,11.84,9.13,2.53,2.53,0,0,0,1.08.23,2.57,2.57,0,0,0,1.09-.23,32.52,32.52,0,0,0,11.83-9.13,26.59,26.59,0,0,0,6-16.78V6.35A2.12,2.12,0,0,0,36.25,4.38ZM29.42,30.22H24.67V18.13h-.24l-4,8.8h-3l-4-8.8H13.2V30.22H8.51V10.08H14l4.9,10.64h.17L24,10.08h5.45Z"/><path class="cls-1" d="M48.62,33.2V10.83h4.85l6.18,13.86h.15L66,10.83h4.82V33.2H66.52V18.71h-.2l-5.15,11.5h-3L53,18.71h-.19V33.2Z"/><path class="cls-1" d="M73.83,26.07V22H82.2v4.1Z"/><path class="cls-1" d="M85.15,33.2V10.83H99.62V14.7H89.91v6h8.86v3.79H89.91V33.2Z"/><path class="cls-1" d="M117.6,33.2H103.52V10.83h4.75V29.18h9.33Z"/><path class="cls-1" d="M120.17,33.2V10.83h4.75V33.2Z"/><path class="cls-1" d="M141.9,22l7,11.16h-5.41l-4.59-7.74h-.21l-4.59,7.74h-5.13l6.85-11.28L129,10.83h5.59L139,18.71h.21l4.41-7.88H149Z"/></svg>