<svg id="Layer_1" data-name="Layer 1" xmlns="http://www.w3.org/2000/svg" viewBox="0 0 242.86 71.64"><defs><style>.cls-1{fill:#fff;}</style></defs><title>logo</title><path class="cls-1" d="M59.09,7.14,32,.14a4.13,4.13,0,0,0-2.15,0l-27.1,7A3.47,3.47,0,0,0,0,10.35V29A43.45,43.45,0,0,0,9.85,56.38a53.16,53.16,0,0,0,19.3,14.88,4.29,4.29,0,0,0,3.53,0A53.16,53.16,0,0,0,52,56.38,43.45,43.45,0,0,0,61.83,29V10.35A3.47,3.47,0,0,0,59.09,7.14ZM48,49.27H40.21V29.56h-.38L33.31,43.91H28.47L21.9,29.56h-.38V49.27H13.87V16.43h9l8,17.35h.28l8-17.35H48Z"/><path class="cls-1" d="M79.27,54.12V17.65h7.9L97.25,40.26h.24l10.07-22.61h7.85V54.12h-7V30.5h-.32L99.73,49.26H94.89L86.48,30.5h-.32V54.12Z"/><path class="cls-1" d="M120.36,42.5V35.82H134V42.5Z"/><path class="cls-1" d="M138.83,54.12V17.65h23.59V24H146.58v9.72H161v6.18H146.58V54.12Z"/><path class="cls-1" d="M191.72,54.12H168.77V17.65h7.75V47.58h15.2Z"/><path class="cls-1" d="M195.91,54.12V17.65h7.75V54.12Z"/><path class="cls-1" d="M231.34,35.93,242.7,54.12h-8.82L226.4,41.51h-.35l-7.48,12.61h-8.36l11.17-18.38L210.27,17.65h9.11l7.24,12.85H227l7.19-12.85h8.71Z"/></svg>