<svg id="Layer_1" data-name="Layer 1" xmlns="http://www.w3.org/2000/svg" viewBox="0 0 29.04 25.86"><defs><style>.cls-1{fill:gray;}</style></defs><title>2-Report-managament</title><path class="cls-1" d="M27.57,0H12.14a1.47,1.47,0,0,0-1.47,1.47v3A1.47,1.47,0,0,0,12.14,5.9H27.57A1.47,1.47,0,0,0,29,4.42V1.47A1.47,1.47,0,0,0,27.57,0Zm0,0"/><path class="cls-1" d="M27.57,10H12.14a1.47,1.47,0,0,0-1.47,1.47v3a1.47,1.47,0,0,0,1.47,1.48H27.57A1.47,1.47,0,0,0,29,14.4v-3A1.47,1.47,0,0,0,27.57,10Zm0,0"/><path class="cls-1" d="M27.57,20H12.14a1.47,1.47,0,0,0-1.47,1.47v2.95a1.47,1.47,0,0,0,1.47,1.48H27.57A1.47,1.47,0,0,0,29,24.38V21.43A1.47,1.47,0,0,0,27.57,20Zm0,0"/><path class="cls-1" d="M2.53,10.68V2.14H2.44C2.16,2.3.37,3.47,0,3.73V1.65C.4,1.36,2.16.22,2.57,0H4.76V10.68Z"/><path class="cls-1" d="M.05,18.3v-.12a3.36,3.36,0,0,1,3.71-3.31c2.25,0,3.71,1.3,3.71,3,0,1.5-1,2.4-1.88,3.4L3.26,23.86v.07h4.4v1.82H.2v-1.4L4,20.22a3.29,3.29,0,0,0,1.19-2.13,1.42,1.42,0,0,0-1.51-1.42,1.46,1.46,0,0,0-1.54,1.5s0,.11,0,.13Z"/></svg>