<svg id="Layer_1" data-name="Layer 1" xmlns="http://www.w3.org/2000/svg" viewBox="0 0 30.9 30.9"><defs><style>.cls-1{fill:#1997aa;}</style></defs><title>8-Create-new-careative-adset</title><path class="cls-1" d="M15.45,0A15.45,15.45,0,1,0,30.9,15.45,15.47,15.47,0,0,0,15.45,0Zm0,26.49a11,11,0,1,1,11-11,11.06,11.06,0,0,1-11,11Zm0,0"/><path class="cls-1" d="M16.09,14V10.14c2.23,0,2.21,2.19,3.52,2.19a1.2,1.2,0,0,0,1.26-1.24c0-2-3.21-2.95-4.78-3V7a.6.6,0,1,0-1.2,0V8.09c-2.5.09-4.77,1.49-4.77,4.22,0,2.23,1.8,3.53,4.77,4.07v4.2c-3.34-.14-1.59-2.91-3.84-2.91a1.16,1.16,0,0,0-1.24,1.26c0,1.59,1.69,3.62,5.08,3.7v1.24a.61.61,0,1,0,1.2,0V22.63c3-.18,5-1.55,5-4.24,0-3.08-2.34-3.87-5-4.43Zm-1.2-.22c-1.51-.3-2.25-.88-2.25-1.89,0-.86.88-1.67,2.25-1.71Zm1.2,6.84v-4c1.09.24,2.48.64,2.48,2s-1.27,1.89-2.48,2Zm0,0"/></svg>