<?xml version="1.0" encoding="utf-8"?>
<!-- Generator: Adobe Illustrator 23.0.0, SVG Export Plug-In . SVG Version: 6.00 Build 0)  -->
<svg version="1.1" id="Layer_1" xmlns="http://www.w3.org/2000/svg" xmlns:xlink="http://www.w3.org/1999/xlink" x="0px" y="0px"
	 viewBox="0 0 33.5 26.6" style="enable-background:new 0 0 33.5 26.6;" xml:space="preserve">
<style type="text/css">
	.st0{clip-path:url(#SVGID_2_);}
	.st1{fill:#939598;}
</style>
<title>home</title>
<g>
	<defs>
		<rect id="SVGID_1_" x="-894.7" y="-1156" width="1920" height="1045.5"/>
	</defs>
	<clipPath id="SVGID_2_">
		<use xlink:href="#SVGID_1_"  style="overflow:visible;"/>
	</clipPath>
	<g class="st0">
		
			<image style="overflow:visible;enable-background:new    ;" width="1015" height="679" xlink:href="40394CD068953E05.png"  transform="matrix(1.8911 0 0 1.8911 -891.8305 -1247.46)">
		</image>
	</g>
</g>
<path class="st1" d="M16.7,5.4L4.8,15.2c0,0,0,0,0,0.1c0,0,0,0,0,0.1v10c0,0.7,0.6,1.3,1.3,1.3h8v-8h5.3v8h8c0.4,0,0.7-0.1,0.9-0.4
	c0.3-0.2,0.4-0.6,0.4-0.9v-10c0,0,0-0.1,0-0.1L16.7,5.4z"/>
<path class="st1" d="M33.2,13l-4.5-3.8V0.7c0-0.2-0.1-0.4-0.2-0.5C28.4,0.1,28.2,0,28,0.1h-4c-0.2,0-0.3,0.1-0.5,0.2
	c-0.1,0.1-0.2,0.3-0.2,0.5v4.1l-5-4.2c-0.9-0.7-2.2-0.7-3.2,0L0.2,13C0.1,13.1,0,13.3,0,13.4c0,0.2,0,0.4,0.2,0.5l1.3,1.5
	c0.1,0.1,0.3,0.2,0.4,0.2c0.2,0,0.4,0,0.5-0.1l14.4-12l14.4,12c0.1,0.1,0.3,0.1,0.4,0.1h0.1c0.2,0,0.3-0.1,0.4-0.2l1.3-1.5
	c0.1-0.1,0.2-0.3,0.1-0.5C33.5,13.3,33.4,13.1,33.2,13z"/>
</svg>
