<svg id="Layer_1" data-name="Layer 1" xmlns="http://www.w3.org/2000/svg" viewBox="0 0 34.57 36.03"><defs><style>.cls-1{fill:#1997aa;}</style></defs><title>8-Create-new-careative-adset</title><path class="cls-1" d="M21.39,31.48v1.06A1.67,1.67,0,0,1,20,34.19l-.26,1a1.2,1.2,0,0,1-1.15.88H16a1.2,1.2,0,0,1-1.15-.88l-.25-1a1.69,1.69,0,0,1-1.43-1.66V31.48a1,1,0,0,1,1-1h6.19a1,1,0,0,1,1,1Zm4.77-14.19a8.86,8.86,0,0,1-2.49,6.17,8.1,8.1,0,0,0-2.18,4.41A1.47,1.47,0,0,1,20,29.11H14.53a1.46,1.46,0,0,1-1.45-1.23,8.24,8.24,0,0,0-2.19-4.43,8.88,8.88,0,1,1,15.27-6.16Zm-7.87-5.37a1,1,0,0,0-1-1,6.41,6.41,0,0,0-6.41,6.4,1,1,0,1,0,2,0,4.41,4.41,0,0,1,4.41-4.4,1,1,0,0,0,1-1Zm-1-6.41a1,1,0,0,0,1-1V1a1,1,0,0,0-1-1,1,1,0,0,0-1,1V4.51a1,1,0,0,0,1,1ZM5.51,17.29a1,1,0,0,0-1-1H1a1,1,0,0,0,0,2H4.51a1,1,0,0,0,1-1Zm28.06-1h-3.5a1,1,0,0,0,0,2h3.5a1,1,0,0,0,0-2Zm-26,9.33L5.06,28.1a1,1,0,0,0,0,1.42,1,1,0,0,0,.71.29,1,1,0,0,0,.7-.29L9,27a1,1,0,0,0,0-1.42,1,1,0,0,0-1.41,0ZM26.32,9.25A1,1,0,0,0,27,9l2.48-2.48a1,1,0,0,0,0-1.42,1,1,0,0,0-1.41,0L25.61,7.55a1,1,0,0,0,0,1.41,1,1,0,0,0,.71.29ZM7.55,9a1,1,0,0,0,.7.28A1,1,0,0,0,9,9,1,1,0,0,0,9,7.54L6.47,5.06A1,1,0,0,0,5.06,6.47ZM27,25.62A1,1,0,1,0,25.61,27l2.49,2.48a1,1,0,0,0,1.4,0,1,1,0,0,0,0-1.42Zm0,0"/></svg>