<?xml version="1.0" encoding="utf-8"?>
<!-- Generator: Adobe Illustrator 23.0.0, SVG Export Plug-In . SVG Version: 6.00 Build 0)  -->
<svg version="1.1" id="Layer_1" xmlns="http://www.w3.org/2000/svg" xmlns:xlink="http://www.w3.org/1999/xlink" x="0px" y="0px"
	 viewBox="0 0 33.5 33.2" style="enable-background:new 0 0 33.5 33.2;" xml:space="preserve">
<style type="text/css">
	.st0{clip-path:url(#SVGID_2_);}
	.st1{fill:#939598;}
</style>
<title>home</title>
<g>
	<g>
		<defs>
			<rect id="SVGID_1_" x="-1641.5" y="-1150" width="1920" height="1045.5"/>
		</defs>
		<clipPath id="SVGID_2_">
			<use xlink:href="#SVGID_1_"  style="overflow:visible;"/>
		</clipPath>
		<g class="st0">
			
				<image style="overflow:visible;enable-background:new    ;" width="1013" height="678" xlink:href="363016947CB2D9E.png"  transform="matrix(1.8945 0 0 1.8945 -1638.5326 -1241.681)">
			</image>
		</g>
	</g>
</g>
<path class="st1" d="M32.9,28.1c-0.4-3.7-1.7-7.2-3.8-10.3c-2.1-2.9-4.6-5.3-7.5-7.3h-9.4c-2.9,2-5.5,4.4-7.7,7.3
	c-2.2,3-3.5,6.6-3.9,10.3L0,33.2h33.5L32.9,28.1z M16.5,20.6H17c1.6,0,2.9,1.3,2.9,2.9c0,1.3-0.9,2.4-2.1,2.8v2.2h-2v-2.2
	c-1.3-0.3-2.2-1.5-2.1-2.8h1.9c0,0.6,0.4,1,1,1H17c0.5,0.1,1.1-0.2,1.2-0.7s-0.2-1.1-0.7-1.2c-0.2,0-0.3,0-0.5,0h-0.4
	c-1.6,0-2.9-1.3-2.9-3c0-1.3,0.9-2.4,2.1-2.8v-2.2h2v2.2c1.3,0.3,2.2,1.5,2.1,2.8h-2c0-0.6-0.4-1-1-1h-0.4c-0.5,0.1-0.9,0.7-0.7,1.2
	C15.9,20.3,16.1,20.6,16.5,20.6L16.5,20.6z"/>
<path class="st1" d="M21.5,8.5L24,1h-1.4c-0.3,0-0.6-0.1-0.9-0.3c-0.6-0.5-1.3-0.7-2-0.7l0,0c-0.7,0-1.4,0.2-2,0.7
	C17.5,0.9,17.2,1,16.9,1l0,0c-0.3,0-0.7-0.1-0.9-0.3C15.4,0.2,14.7,0,14,0l0,0c-0.7,0-1.4,0.2-2,0.7C11.8,0.9,11.5,1,11.1,1H9.8
	l2.4,7.5v0.1L21.5,8.5L21.5,8.5z"/>
</svg>
