<svg id="Layer_1" data-name="Layer 1" xmlns="http://www.w3.org/2000/svg" viewBox="0 0 33.49 33.2"><defs><style>.cls-1{fill:#1997aa;}</style></defs><title>8x-</title><path class="cls-1" d="M32.88,28.14a22.65,22.65,0,0,0-3.77-10.3,29.81,29.81,0,0,0-7.54-7.31h-9.4a31.11,31.11,0,0,0-7.65,7.3A21.85,21.85,0,0,0,.61,28.14L0,33.2H33.49Zm-16.35-7.5H17a2.92,2.92,0,0,1,.77,5.73v2.2H15.77v-2.2a2.92,2.92,0,0,1-2.15-2.82h1.94a1,1,0,0,0,1,1H17a1,1,0,1,0,0-1.94h-.42a2.92,2.92,0,0,1-.76-5.73v-2.2h1.95v2.2a2.92,2.92,0,0,1,2.15,2.82H17.92a1,1,0,0,0-1-1h-.42a1,1,0,0,0,0,1.94Z"/><path class="cls-1" d="M21.55,8.5,24,1.05H22.61a1.26,1.26,0,0,1-.86-.34,3.13,3.13,0,0,0-2-.71h0a3.07,3.07,0,0,0-2,.71A1.17,1.17,0,0,1,16.9,1h0A1.21,1.21,0,0,1,16,.71,3.07,3.07,0,0,0,14,0h0a3.13,3.13,0,0,0-2,.7,1.18,1.18,0,0,1-.85.34H9.78L12.2,8.5v.08h9.35Z"/></svg>