<?xml version="1.0" encoding="utf-8"?>
<!-- Generator: Adobe Illustrator 23.0.0, SVG Export Plug-In . SVG Version: 6.00 Build 0)  -->
<svg version="1.1" id="Layer_1" xmlns="http://www.w3.org/2000/svg" xmlns:xlink="http://www.w3.org/1999/xlink" x="0px" y="0px"
	 viewBox="0 0 30.9 30.9" style="enable-background:new 0 0 30.9 30.9;" xml:space="preserve">
<style type="text/css">
	.st0{clip-path:url(#SVGID_2_);}
	.st1{fill:#939598;}
</style>
<title>home</title>
<g>
	<defs>
		<rect id="SVGID_1_" x="-1422.5" y="-1153.4" width="1920" height="1045.5"/>
	</defs>
	<clipPath id="SVGID_2_">
		<use xlink:href="#SVGID_1_"  style="overflow:visible;"/>
	</clipPath>
	<g class="st0">
		
			<image style="overflow:visible;enable-background:new    ;" width="1015" height="679" xlink:href="6C5164F746AC19EB.png"  transform="matrix(1.8911 0 0 1.8911 -1419.6705 -1244.8199)">
		</image>
	</g>
</g>
<path class="st1" d="M15.4,0C6.9,0,0,6.9,0,15.4s6.9,15.4,15.4,15.4S30.9,24,30.9,15.4l0,0C30.9,6.9,24,0,15.4,0z M15.4,26.5
	c-6.1,0-11-4.9-11-11s4.9-11,11-11s11,4.9,11,11C26.4,21.6,21.5,26.5,15.4,26.5z"/>
<path class="st1" d="M16.1,14v-3.9c2.2,0,2.2,2.2,3.5,2.2c0.7,0,1.2-0.5,1.3-1.1c0,0,0-0.1,0-0.1c0-2-3.2-2.9-4.8-3V7
	c0-0.3-0.3-0.6-0.6-0.6c-0.3,0-0.6,0.3-0.6,0.6c0,0,0,0,0,0v1.1c-2.5,0.1-4.8,1.5-4.8,4.2c0,2.2,1.8,3.5,4.8,4.1v4.2
	c-3.3-0.1-1.6-2.9-3.8-2.9c-0.6,0-1.2,0.4-1.2,1.1c0,0.1,0,0.1,0,0.2c0,1.6,1.7,3.6,5.1,3.7v1.2c-0.1,0.3,0.2,0.6,0.5,0.7
	c0.3,0.1,0.6-0.2,0.7-0.5c0-0.1,0-0.1,0-0.2v-1.2c3-0.2,5-1.5,5-4.2C21.1,15.3,18.8,14.5,16.1,14L16.1,14z M14.9,13.8
	c-1.5-0.3-2.2-0.9-2.2-1.9c0-0.9,0.9-1.7,2.2-1.7V13.8z M16.1,20.6v-4c1.1,0.2,2.5,0.6,2.5,2S17.3,20.5,16.1,20.6z"/>
</svg>
