<?xml version="1.0" encoding="utf-8"?>
<!-- Generator: Adobe Illustrator 23.0.0, SVG Export Plug-In . SVG Version: 6.00 Build 0)  -->
<svg version="1.1" id="Layer_1" xmlns="http://www.w3.org/2000/svg" xmlns:xlink="http://www.w3.org/1999/xlink" x="0px" y="0px"
	 viewBox="0 0 34.6 36" style="enable-background:new 0 0 34.6 36;" xml:space="preserve">
<style type="text/css">
	.st0{clip-path:url(#SVGID_2_);}
	.st1{fill:#939598;}
</style>
<title>home</title>
<g>
	<defs>
		<rect id="SVGID_1_" x="-561.6" y="-1162.3" width="1920" height="1045.5"/>
	</defs>
	<clipPath id="SVGID_2_">
		<use xlink:href="#SVGID_1_"  style="overflow:visible;"/>
	</clipPath>
	<g class="st0">
		
			<image style="overflow:visible;enable-background:new    ;" width="1015" height="679" xlink:href="AC365C56280A9F40.png"  transform="matrix(1.8911 0 0 1.8911 -558.7605 -1253.77)">
		</image>
	</g>
</g>
<path class="st1" d="M21.4,31.5v1.1c0,0.8-0.6,1.5-1.4,1.6l-0.3,1c-0.1,0.5-0.6,0.9-1.1,0.9H16c-0.5,0-1-0.4-1.1-0.9l-0.2-1
	c-0.8-0.1-1.4-0.8-1.4-1.7v-1c0-0.6,0.4-1,1-1h6.2C20.9,30.5,21.4,30.9,21.4,31.5L21.4,31.5z M26.2,17.3c0,2.3-0.9,4.5-2.5,6.2
	c-1.2,1.2-1.9,2.7-2.2,4.4c-0.1,0.7-0.8,1.3-1.5,1.2h-5.5c-0.7,0-1.3-0.5-1.4-1.2c-0.3-1.7-1-3.2-2.2-4.4c-3.4-3.5-3.3-9.2,0.2-12.6
	s9.2-3.3,12.6,0.2C25.3,12.8,26.2,15,26.2,17.3z M18.3,11.9c0-0.6-0.4-1-1-1c-3.5,0-6.4,2.9-6.4,6.4c0,0.6,0.4,1,1,1s1-0.4,1-1
	c0-2.4,2-4.4,4.4-4.4C17.8,12.9,18.3,12.5,18.3,11.9z M17.3,5.5c0.6,0,1-0.4,1-1V1c0-0.6-0.4-1-1-1s-1,0.4-1,1v3.5
	C16.3,5.1,16.7,5.5,17.3,5.5z M5.5,17.3c0-0.6-0.4-1-1-1H1c-0.6,0-1,0.4-1,1s0.4,1,1,1h3.5C5.1,18.3,5.5,17.8,5.5,17.3z M33.6,16.3
	h-3.5c-0.6,0-1,0.4-1,1s0.4,1,1,1h3.5c0.6,0,1-0.4,1-1S34.1,16.3,33.6,16.3z M7.6,25.6l-2.5,2.5c-0.4,0.4-0.4,1,0,1.4c0,0,0,0,0,0
	c0.2,0.2,0.4,0.3,0.7,0.3c0.3,0,0.5-0.1,0.7-0.3L9,27c0.4-0.4,0.4-1,0-1.4c0,0,0,0,0,0C8.6,25.2,8,25.2,7.6,25.6L7.6,25.6z
	 M26.3,9.2c0.2,0,0.5-0.1,0.7-0.2l2.5-2.5c0.4-0.4,0.4-1,0-1.4c0,0,0,0,0,0c-0.4-0.4-1-0.4-1.4,0l-2.5,2.5c-0.4,0.4-0.4,1,0,1.4
	C25.8,9.1,26.1,9.3,26.3,9.2z M7.6,9C7.7,9.2,8,9.3,8.2,9.3C8.5,9.3,8.8,9.2,9,9c0.4-0.4,0.4-1,0-1.4c0,0,0,0,0,0L6.5,5.1
	C6.1,4.7,5.4,4.7,5.1,5.2c-0.3,0.4-0.3,0.9,0,1.3L7.6,9z M27,25.6c-0.3-0.5-0.9-0.6-1.4-0.3c-0.5,0.3-0.6,0.9-0.3,1.4
	c0.1,0.1,0.2,0.2,0.3,0.3l2.5,2.5c0.4,0.4,1,0.4,1.4,0c0.4-0.4,0.4-1,0-1.4c0,0,0,0,0,0L27,25.6z"/>
</svg>
