<?xml version="1.0" encoding="utf-8"?>
<!-- Generator: Adobe Illustrator 23.0.0, SVG Export Plug-In . SVG Version: 6.00 Build 0)  -->
<svg version="1.1" id="Layer_1" xmlns="http://www.w3.org/2000/svg" xmlns:xlink="http://www.w3.org/1999/xlink" x="0px" y="0px"
	 viewBox="0 0 33.2 34.5" style="enable-background:new 0 0 33.2 34.5;" xml:space="preserve">
<style type="text/css">
	.st0{clip-path:url(#SVGID_2_);}
	.st1{fill:#939598;}
</style>
<title>home</title>
<g>
	<defs>
		<rect id="SVGID_1_" x="-779.5" y="-1148.3" width="1920" height="1045.5"/>
	</defs>
	<use xlink:href="#SVGID_1_"  style="overflow:visible;fill:#939598;"/>
	<clipPath id="SVGID_2_">
		<use xlink:href="#SVGID_1_"  style="overflow:visible;"/>
	</clipPath>
	<g class="st0">
		
			<image style="overflow:visible;enable-background:new    ;" width="1015" height="679" xlink:href="B08F31591DEF0D27.png"  transform="matrix(1.8911 0 0 1.8911 -776.7005 -1239.73)">
		</image>
	</g>
</g>
<path class="st1" d="M4.1,5.6C4.2,7,4.6,8.4,5.4,9.7c0.9,1.4,2.5,2.2,4.1,1.9c1.4-0.2,2.6-1.1,3.2-2.3c0.9-1.7,1.3-3.6,1-5.6
	c-0.1-1.8-1.4-3.2-3.1-3.5c-1.1-0.3-2.3-0.3-3.4,0C5.8,0.4,4.7,1.4,4.4,2.8C4.2,3.4,4.1,4.1,4,4.8h0.1C4.1,5,4.1,5.3,4.1,5.6z"/>
<path class="st1" d="M22.4,13.1c-1.4,0.3-2.5,1.4-2.8,2.9c-0.2,0.9-0.2,1.8-0.1,2.7c0.1,1.4,0.5,2.7,1.3,3.9c0.8,1.4,2.4,2.1,4,1.9
	c1.4-0.2,2.7-1.1,3.3-2.4c0.7-1.4,1.1-2.9,1.1-4.4c0-0.5-0.1-0.9-0.1-1.4c-0.2-1.4-1.2-2.6-2.6-3C25.1,12.7,23.7,12.7,22.4,13.1z"/>
<path class="st1" d="M13,32.1h-0.5c-3.3-0.2-6.2-2.1-7.6-5L5.6,27c0.3,0,0.6-0.3,0.5-0.6c0-0.2-0.1-0.3-0.2-0.4
	c-0.7-0.8-1.4-1.7-2.1-2.5c-0.4-0.5-0.9-0.4-1.1,0.2c-0.4,1-0.7,2-1,3c-0.2,0.6,0.1,1,0.8,0.8l0.8-0.1l0.1,0.3c1.4,3,4,5.1,7.2,5.8
	c0.8,0.2,1.6,0.3,2.4,0.3c0.5,0,0.8-0.3,0.9-0.8c0,0,0,0,0,0C13.9,32.5,13.5,32.1,13,32.1C13,32.1,13,32.1,13,32.1z"/>
<path class="st1" d="M16.1,2.7c0.1,0,0.2,0,0.3,0c2.2,0,4.4,0.9,5.9,2.5c0.8,0.7,1.4,1.6,1.9,2.6l-0.8,0.2c-0.3,0-0.5,0.3-0.5,0.6
	c0,0.1,0.1,0.2,0.1,0.3c0.8,0.9,1.5,1.8,2.3,2.7c0.2,0.2,0.5,0.3,0.7,0.1c0.1-0.1,0.2-0.2,0.2-0.3c0.4-1.1,0.8-2.2,1.1-3.2
	c0.2-0.5-0.2-0.8-0.7-0.8L26,7.4c-0.1-0.1-0.1-0.2-0.1-0.3c-1-2.2-2.8-4-4.9-5.1C19.5,1.4,17.9,1,16.2,1c-0.5,0-0.8,0.3-0.9,0.8
	C15.3,2.2,15.7,2.6,16.1,2.7z"/>
<path class="st1" d="M17.8,20.1c-0.4-1.7-0.9-3.4-1.6-5c-0.2-0.5-0.5-0.8-1-1c-0.8-0.4-1.6-0.7-2.4-1.1c-0.3-0.1-0.5-0.3-0.8-0.5
	c-0.3-0.2-0.6-0.5-0.9-0.7c-0.2,1.5-1.1,2.7-2.3,2.7s-2.1-1.2-2.3-2.7l-0.5,0.4c-0.4,0.4-1,0.8-1.5,1c-0.7,0.3-1.3,0.6-2,0.9
	c-0.4,0.2-0.7,0.5-0.9,0.9c-0.5,1.5-1,3-1.5,4.6C0,20.1,0,20.6,0,21.1c0,0.5,0.2,0.6,0.6,0.6h16.6c0.4,0,0.5-0.1,0.6-0.5
	C17.8,20.9,17.8,20.5,17.8,20.1z"/>
<path class="st1" d="M33.1,32.8c-0.4-1.7-0.9-3.4-1.6-5c-0.2-0.5-0.5-0.9-1-1c-0.8-0.4-1.6-0.7-2.4-1.1c-0.3-0.1-0.5-0.3-0.8-0.5
	c-0.3-0.2-0.6-0.5-0.9-0.7c-0.2,1.5-1.1,2.7-2.3,2.7S22.1,26,22,24.5c-0.2,0.1-0.3,0.3-0.5,0.4c-0.5,0.4-1,0.8-1.5,1
	c-0.7,0.3-1.3,0.6-2,0.9c-0.4,0.2-0.7,0.5-0.9,0.9c-0.5,1.5-1.1,3.1-1.6,4.6c-0.1,0.5-0.2,1.1-0.2,1.6c0,0.5,0.2,0.6,0.6,0.6h16.6
	c0.4,0,0.5-0.1,0.6-0.5C33.2,33.6,33.2,33.2,33.1,32.8z"/>
</svg>
