<svg id="Layer_1" data-name="Layer 1" xmlns="http://www.w3.org/2000/svg" viewBox="0 0 33.19 34.5"><defs><style>.cls-1{fill:#1997aa;}</style></defs><title>8-Create-new-careative-adset</title><path class="cls-1" d="M4.12,5.58A8.12,8.12,0,0,0,5.41,9.67a4.07,4.07,0,0,0,4.15,1.87A4.19,4.19,0,0,0,12.71,9.2a9.07,9.07,0,0,0,1-5.55A3.67,3.67,0,0,0,10.59.19a7.54,7.54,0,0,0-3.44,0A3.54,3.54,0,0,0,4.36,2.75a16.89,16.89,0,0,0-.35,2h.11C4.12,5,4.1,5.31,4.12,5.58Z"/><path class="cls-1" d="M22.42,13.05a3.61,3.61,0,0,0-2.8,2.87,8,8,0,0,0-.11,2.68,7.82,7.82,0,0,0,1.28,3.89,4.06,4.06,0,0,0,4,1.88A4.25,4.25,0,0,0,28.07,22a9.61,9.61,0,0,0,1.08-4.44c0-.47-.06-.94-.15-1.41a3.61,3.61,0,0,0-2.56-3A7.23,7.23,0,0,0,22.42,13.05Z"/><path class="cls-1" d="M13,32.11l-.47,0a9,9,0,0,1-7.64-5l.68-.13a.57.57,0,0,0,.34-1c-.7-.83-1.42-1.66-2.14-2.47-.4-.46-.87-.36-1.07.22-.36,1-.7,2-1,3-.21.61.11,1,.76.84l.78-.15.14.28a10.4,10.4,0,0,0,7.23,5.84,14.34,14.34,0,0,0,2.37.28.82.82,0,0,0,.86-.81A.85.85,0,0,0,13,32.11Z"/><path class="cls-1" d="M16.12,2.67c.1,0,.2,0,.3,0a8.77,8.77,0,0,1,5.95,2.48,8.47,8.47,0,0,1,1.86,2.56l-.75.16a.54.54,0,0,0-.34.88c.75.9,1.52,1.79,2.3,2.66a.53.53,0,0,0,.94-.2c.39-1.07.77-2.15,1.13-3.24.16-.49-.19-.84-.71-.75L26,7.42c-.06-.1-.1-.18-.14-.26a10.49,10.49,0,0,0-4.94-5.05A10.28,10.28,0,0,0,16.22,1a.85.85,0,0,0-.88.79A.85.85,0,0,0,16.12,2.67Z"/><path class="cls-1" d="M17.76,20.08a28.81,28.81,0,0,0-1.59-5,1.87,1.87,0,0,0-1-1c-.79-.36-1.57-.71-2.35-1.09a5,5,0,0,1-.79-.5c-.29-.22-.56-.46-.87-.72-.16,1.53-1.11,2.71-2.27,2.71s-2.11-1.17-2.27-2.68l-.48.39a5,5,0,0,1-1.54,1c-.68.28-1.33.6-2,.92a1.55,1.55,0,0,0-.89.87C1.2,16.45.66,18,.18,19.54A6,6,0,0,0,0,21.13c0,.49.16.61.64.61h16.6c.41,0,.54-.09.57-.49A4.16,4.16,0,0,0,17.76,20.08Z"/><path class="cls-1" d="M33.12,32.84a28.74,28.74,0,0,0-1.6-5,1.81,1.81,0,0,0-1-1.05c-.79-.35-1.58-.71-2.36-1.09a4.76,4.76,0,0,1-.79-.5c-.28-.22-.56-.46-.86-.72-.16,1.53-1.11,2.71-2.28,2.71S22.15,26,22,24.49c-.18.14-.33.27-.47.4a5.13,5.13,0,0,1-1.55,1c-.67.28-1.33.6-2,.92a1.56,1.56,0,0,0-.89.87c-.53,1.54-1.07,3.07-1.55,4.63a5.63,5.63,0,0,0-.18,1.59c0,.49.16.61.64.61H32.59c.41,0,.55-.09.58-.49A4.59,4.59,0,0,0,33.12,32.84Z"/></svg>