<svg id="Layer_1" data-name="Layer 1" xmlns="http://www.w3.org/2000/svg" viewBox="0 0 29.12 31.73"><defs><style>.cls-1{fill:#1997aa;}</style></defs><title>8-Create-new-careative-adset</title><path class="cls-1" d="M29.1,26.17,27.46,8.31A2.45,2.45,0,0,0,24.9,6.26H21.66V6.13c0-3.38-3.18-6.13-7.1-6.13s-7.1,2.75-7.1,6.13v.13H4.22A2.46,2.46,0,0,0,1.66,8.31L0,26.17a4.77,4.77,0,0,0,1.57,3.91A6.49,6.49,0,0,0,6,31.73H23.14a6.49,6.49,0,0,0,4.39-1.65A4.77,4.77,0,0,0,29.1,26.17ZM9.61,6.13c0-2.35,2.22-4.27,5-4.27s5,1.92,5,4.27v.13H9.61Zm12.26,9.2-8.39,9.61a1.51,1.51,0,0,1-1.15.55,1.49,1.49,0,0,1-1.14-.55l-3.93-4.5a2,2,0,0,1,0-2.63,1.47,1.47,0,0,1,2.29,0L12.33,21l7.24-8.31a1.49,1.49,0,0,1,2.3,0A2.08,2.08,0,0,1,21.87,15.33Z"/></svg>