<svg id="Layer_1" data-name="Layer 1" xmlns="http://www.w3.org/2000/svg" viewBox="0 0 33.49 26.65"><defs><style>.cls-1{fill:#1997aa;}</style></defs><title>8-Create-new-careative-adset</title><path class="cls-1" d="M16.74,5.38,4.8,15.22a.2.2,0,0,1,0,.07.13.13,0,0,0,0,.06v10a1.35,1.35,0,0,0,1.33,1.33h8v-8H19.4v8h8a1.24,1.24,0,0,0,.93-.4,1.28,1.28,0,0,0,.4-.93v-10a.39.39,0,0,0,0-.13Zm0,0"/><path class="cls-1" d="M33.25,13,28.71,9.2V.73a.66.66,0,0,0-.19-.48A.65.65,0,0,0,28,.06h-4a.61.61,0,0,0-.47.19.62.62,0,0,0-.19.48V4.78L18.32.54a2.58,2.58,0,0,0-3.16,0L.23,13a.62.62,0,0,0-.23.45.72.72,0,0,0,.15.49l1.28,1.53a.73.73,0,0,0,.44.23.74.74,0,0,0,.5-.14l14.37-12,14.38,12a.65.65,0,0,0,.43.14h.06a.7.7,0,0,0,.44-.23l1.29-1.53a.66.66,0,0,0,.14-.49.59.59,0,0,0-.23-.45Zm0,0"/></svg>