<?xml version="1.0" encoding="utf-8"?>
<!-- Generator: Adobe Illustrator 23.0.0, SVG Export Plug-In . SVG Version: 6.00 Build 0)  -->
<svg version="1.1" id="Layer_1" xmlns="http://www.w3.org/2000/svg" xmlns:xlink="http://www.w3.org/1999/xlink" x="0px" y="0px"
	 viewBox="0 0 33.1 26.9" style="enable-background:new 0 0 33.1 26.9;" xml:space="preserve">
<style type="text/css">
	.st0{clip-path:url(#SVGID_2_);}
	.st1{fill:#808080;}
</style>
<title>home</title>
<g>
	<defs>
		<rect id="SVGID_1_" x="-129.8" y="-1155.5" width="1920" height="1045.5"/>
	</defs>
	<clipPath id="SVGID_2_">
		<use xlink:href="#SVGID_1_"  style="overflow:visible;"/>
	</clipPath>
	<g class="st0">
		
			<image style="overflow:visible;enable-background:new    ;" width="1015" height="679" xlink:href="1FBE4E9A8DCDCD3C.png"  transform="matrix(1.8911 0 0 1.8911 -126.9606 -1246.96)">
		</image>
	</g>
</g>
<path class="st1" d="M29,4.1V0H0v22.8c0,0,0,4.1,4.1,4.1H30c0,0,3.1-0.1,3.1-4.1V4.1H29z M4.1,24.8c-1.1,0-2-0.8-2.1-1.9
	c0,0,0-0.1,0-0.1V2.1h24.8v20.7c0,0.8,0.2,1.5,0.7,2.1H4.1z"/>
<rect x="4.1" y="6.2" class="st1" width="20.7" height="2.1"/>
<rect x="15.5" y="18.6" class="st1" width="7.2" height="2.1"/>
<rect x="15.5" y="14.5" class="st1" width="9.3" height="2.1"/>
<rect x="15.5" y="10.4" class="st1" width="9.3" height="2.1"/>
<rect x="4.1" y="10.4" class="st1" width="9.3" height="10.4"/>
</svg>
