<?xml version="1.0" encoding="utf-8"?>
<!-- Generator: Adobe Illustrator 23.0.0, SVG Export Plug-In . SVG Version: 6.00 Build 0)  -->
<svg version="1.1" id="Layer_1" xmlns="http://www.w3.org/2000/svg" xmlns:xlink="http://www.w3.org/1999/xlink" x="0px" y="0px"
	 viewBox="0 0 32.3 35.5" style="enable-background:new 0 0 32.3 35.5;" xml:space="preserve">
<style type="text/css">
	.st0{clip-path:url(#SVGID_2_);}
	.st1{fill:#939598;}
</style>
<title>home</title>
<g>
	<defs>
		<rect id="SVGID_1_" x="-344.6" y="-1147.7" width="1920" height="1045.5"/>
	</defs>
	<clipPath id="SVGID_2_">
		<use xlink:href="#SVGID_1_"  style="overflow:visible;"/>
	</clipPath>
	<g class="st0">
		
			<image style="overflow:visible;enable-background:new    ;" width="1015" height="679" xlink:href="500BD6F4C6CBBB8B.png"  transform="matrix(1.8911 0 0 1.8911 -341.7805 -1239.14)">
		</image>
	</g>
</g>
<path class="st1" d="M16.6,9.1v2.7c0.8-0.1,1.7-0.4,1.7-1.4S17.4,9.3,16.6,9.1z"/>
<path class="st1" d="M14.2,5.8c0,0.7,0.5,1.1,1.6,1.3V4.7C14.8,4.7,14.2,5.3,14.2,5.8z"/>
<path class="st1" d="M16.2,0c-4.6,0-8.3,3.7-8.3,8.3s3.7,8.3,8.3,8.3s8.3-3.7,8.3-8.3l0,0C24.5,3.7,20.8,0,16.2,0z M16.6,13.2v0.9
	c0,0.2-0.2,0.4-0.4,0.4s-0.4-0.2-0.4-0.4c0,0,0,0,0,0v-0.9c-2.3-0.1-3.5-1.4-3.5-2.5c0-0.4,0.3-0.8,0.7-0.9c0,0,0.1,0,0.1,0
	c1.5,0,0.3,1.9,2.6,2V9c-2-0.4-3.3-1.3-3.3-2.8c0-1.9,1.6-2.8,3.3-2.9V2.5c0-0.2,0.2-0.4,0.4-0.4c0.2,0,0.4,0.2,0.4,0.4c0,0,0,0,0,0
	v0.7c1.1,0,3.3,0.7,3.3,2c0,0.5-0.3,0.8-0.8,0.9c0,0-0.1,0-0.1,0c-0.9,0-0.9-1.5-2.4-1.5v2.6c1.8,0.4,3.4,0.9,3.4,3
	C20,12.1,18.7,13.1,16.6,13.2L16.6,13.2z"/>
<path class="st1" d="M1,15.9h3.8c0.5,0,1,0.4,1,1v17.8c0,0.5-0.4,1-1,1H1c-0.5,0-1-0.4-1-1V16.8C0,16.3,0.4,15.9,1,15.9z"/>
<path class="st1" d="M9.8,21.5h3.9c0.5,0,1,0.4,1,1v12.1c0,0.5-0.4,1-1,1H9.8c-0.5,0-1-0.4-1-1V22.4C8.9,21.9,9.3,21.5,9.8,21.5z"/>
<path class="st1" d="M18.7,27.3h3.9c0.5,0,1,0.4,1,1v6.3c0,0.5-0.4,1-1,1h-3.9c-0.5,0-1-0.4-1-1v-6.3C17.7,27.7,18.1,27.3,18.7,27.3
	z"/>
<path class="st1" d="M27.5,19.3h3.9c0.5,0,1,0.4,1,1v14.3c0,0.5-0.4,1-1,1h-3.9c-0.5,0-1-0.4-1-1V20.2C26.6,19.7,27,19.3,27.5,19.3z
	"/>
</svg>
