<svg id="Layer_1" data-name="Layer 1" xmlns="http://www.w3.org/2000/svg" viewBox="0 0 32.33 35.52"><defs><style>.cls-1{fill:#1997aa;}</style></defs><title>8-Create-new-careative-adset</title><path class="cls-1" d="M16.6,9.12v2.72c.83-.06,1.7-.44,1.7-1.35s-.95-1.21-1.7-1.37Zm0,0"/><path class="cls-1" d="M14.23,5.85c0,.69.52,1.09,1.55,1.3V4.68c-.94,0-1.55.58-1.55,1.17Zm0,0"/><path class="cls-1" d="M16.16,0a8.32,8.32,0,1,0,8.32,8.32A8.33,8.33,0,0,0,16.16,0Zm.44,13.24v.86a.41.41,0,1,1-.82,0v-.86c-2.33-.05-3.48-1.44-3.48-2.53a.79.79,0,0,1,.85-.87c1.54,0,.34,1.9,2.63,2V9c-2-.37-3.27-1.26-3.27-2.79,0-1.87,1.55-2.84,3.27-2.89V2.55a.41.41,0,1,1,.82,0v.73c1.08,0,3.28.7,3.28,2.05a.82.82,0,0,1-.87.85c-.9,0-.88-1.47-2.41-1.49V7.3c1.82.38,3.43.92,3.43,3,0,1.84-1.38,2.78-3.43,2.9Zm0,0"/><rect class="cls-1" y="15.85" width="5.77" height="19.67" rx="0.96" ry="0.96"/><rect class="cls-1" x="8.85" y="21.49" width="5.77" height="14.03" rx="0.96" ry="0.96"/><rect class="cls-1" x="17.7" y="27.32" width="5.77" height="8.2" rx="0.96" ry="0.96"/><rect class="cls-1" x="26.56" y="19.28" width="5.77" height="16.24" rx="0.96" ry="0.96"/></svg>