<?xml version="1.0" encoding="utf-8"?>
<!-- Generator: Adobe Illustrator 23.0.0, SVG Export Plug-In . SVG Version: 6.00 Build 0)  -->
<svg version="1.1" id="Layer_1" xmlns="http://www.w3.org/2000/svg" xmlns:xlink="http://www.w3.org/1999/xlink" x="0px" y="0px"
	 viewBox="0 0 29.1 31.7" style="enable-background:new 0 0 29.1 31.7;" xml:space="preserve">
<style type="text/css">
	.st0{clip-path:url(#SVGID_2_);}
	.st1{fill:#939598;}
</style>
<title>home</title>
<g>
	<defs>
		<rect id="SVGID_1_" x="-1209.9" y="-1151.7" width="1920" height="1045.5"/>
	</defs>
	<use xlink:href="#SVGID_1_"  style="overflow:visible;fill:#939598;"/>
	<clipPath id="SVGID_2_">
		<use xlink:href="#SVGID_1_"  style="overflow:visible;"/>
	</clipPath>
	<g class="st0">
		
			<image style="overflow:visible;enable-background:new    ;" width="1015" height="679" xlink:href="A6F06FC0EA0697A.png"  transform="matrix(1.8911 0 0 1.8911 -1207.1105 -1243.13)">
		</image>
	</g>
</g>
<path class="st1" d="M29.1,26.2L27.5,8.3c-0.2-1.2-1.3-2.1-2.6-2.1h-3.2V6.1c0-3.4-3.2-6.1-7.1-6.1S7.5,2.8,7.5,6.1v0.1H4.2
	C3,6.2,1.9,7.1,1.7,8.3L0,26.2c-0.1,1.5,0.5,2.9,1.6,3.9c1.2,1.1,2.8,1.7,4.4,1.6h17.1c1.6,0,3.2-0.6,4.4-1.6
	C28.6,29.1,29.2,27.6,29.1,26.2z M9.6,6.1c0-2.3,2.2-4.3,5-4.3s5,1.9,5,4.3v0.1h-10V6.1z M21.9,15.3l-8.4,9.6
	c-0.3,0.3-0.7,0.5-1.1,0.5c-0.4,0-0.9-0.2-1.1-0.5l-3.9-4.5c-0.7-0.8-0.7-1.9,0-2.6c0.5-0.6,1.4-0.7,2.1-0.2
	c0.1,0.1,0.2,0.1,0.2,0.2l2.8,3.2l7.2-8.3c0.5-0.6,1.5-0.7,2.1-0.2c0.1,0.1,0.1,0.1,0.2,0.2C22.5,13.5,22.5,14.6,21.9,15.3z"/>
</svg>
