<svg id="Layer_1" data-name="Layer 1" xmlns="http://www.w3.org/2000/svg" viewBox="0 0 35.26 35.7"><defs><style>.cls-1{fill:gray;}</style></defs><title>icon</title><path class="cls-1" d="M31.07,7.12c0-.64-.65-.82-1.15-.93V8c.56,0,1.15-.3,1.15-.91Zm0,0"/><path class="cls-1" d="M29.36,3.18c-.64,0-1.05.39-1.05.79s.35.74,1.05.88Zm0,0"/><path class="cls-1" d="M29.62,11.29A5.65,5.65,0,1,0,24,5.64a5.65,5.65,0,0,0,5.65,5.65Zm-2.48-7.1a2,2,0,0,1,2.22-2v-.5a.28.28,0,1,1,.56,0v.5c.72,0,2.22.47,2.22,1.39a.56.56,0,0,1-.59.58c-.61,0-.6-1-1.63-1V5c1.23.26,2.32.63,2.32,2.07,0,1.25-.93,1.88-2.32,2v.57a.28.28,0,1,1-.56,0V9C27.78,9,27,8,27,7.27a.54.54,0,0,1,.58-.59c1.05,0,.24,1.29,1.79,1.35V6.08c-1.39-.25-2.22-.86-2.22-1.89Zm0,0"/><path class="cls-1" d="M6.89,25.15H2A1.62,1.62,0,0,0,.4,26.77v7.3A1.63,1.63,0,0,0,2,35.7H6.89a1.63,1.63,0,0,0,1.62-1.63v-7.3a1.63,1.63,0,0,0-1.62-1.62Zm0,0"/><path class="cls-1" d="M19.47,19.47H14.6A1.63,1.63,0,0,0,13,21.09v13A1.63,1.63,0,0,0,14.6,35.7h4.87a1.62,1.62,0,0,0,1.62-1.63v-13a1.62,1.62,0,0,0-1.62-1.62Zm0,0"/><path class="cls-1" d="M32.05,13H27.18a1.63,1.63,0,0,0-1.62,1.62V34.07a1.63,1.63,0,0,0,1.62,1.63h4.87a1.62,1.62,0,0,0,1.62-1.63V14.6A1.61,1.61,0,0,0,32.05,13Zm0,0"/><path class="cls-1" d="M22.32,8.33l-4-.84a.82.82,0,0,0-.81.31.81.81,0,0,0-.07.87l.9,1.68L.44,19.56a.81.81,0,0,0-.35,1.09A.81.81,0,0,0,1.18,21l17.89-9.22.82,1.54a.81.81,0,0,0,.71.43h0a.79.79,0,0,0,.71-.51l1.56-3.81a.81.81,0,0,0-.59-1.1Zm0,0"/></svg>