<svg id="Layer_1" data-name="Layer 1" xmlns="http://www.w3.org/2000/svg" viewBox="0 0 36.6 37.35"><defs><style>.cls-1{fill:gray;}</style></defs><title>icon</title><path class="cls-1" d="M18.39,0a9.37,9.37,0,1,0,9.37,9.37A9.38,9.38,0,0,0,18.39,0Zm2.7,13.06a3,3,0,0,1-1.56,1,.44.44,0,0,0-.39.5c0,.27,0,.54,0,.83a.33.33,0,0,1-.36.38h-.9a.35.35,0,0,1-.38-.4v-.61c0-.44,0-.47-.45-.54a5.46,5.46,0,0,1-1.59-.45c-.39-.19-.44-.29-.32-.7s.17-.62.26-.92.2-.39.54-.23a5,5,0,0,0,1.76.53,2.19,2.19,0,0,0,1.16-.16.89.89,0,0,0,.21-1.57,2.13,2.13,0,0,0-.65-.38,15.41,15.41,0,0,1-1.8-.81,2.53,2.53,0,0,1-1.44-2.45,2.68,2.68,0,0,1,2-2.49c.48-.18.49-.17.49-.67V3.42c0-.38.07-.44.45-.45h.35c.81,0,.81,0,.81.81,0,.57,0,.57.57.65a5.45,5.45,0,0,1,1.25.37.36.36,0,0,1,.24.49c-.09.35-.19.71-.31,1s-.21.37-.52.23a4,4,0,0,0-2-.4,1.62,1.62,0,0,0-.53.11.75.75,0,0,0-.19,1.33,3.67,3.67,0,0,0,.86.49,14,14,0,0,1,1.58.72,2.8,2.8,0,0,1,.88,4.25Zm0,0"/><path class="cls-1" d="M8,37.35c-.8-.82-1.6-1.65-2.41-2.47Q3,32.22.33,29.58L0,29.22l2.93-2.71,4.64-4.26a.75.75,0,0,1,.48-.18h17.1l.19,0c-.14.29-2.62,5.05-3,5.05H14.8v1.06a1.48,1.48,0,0,0,1.48,1.48h7.57a.56.56,0,0,0,.58-.35c1.52-2.94,3.07-5.87,4.6-8.8A6.54,6.54,0,0,1,34.83,17H36.6l-.23.46q-4.42,8.43-8.83,16.85a.81.81,0,0,1-.72.43H11.67a1.18,1.18,0,0,0-.78.29C10,35.8,9,36.57,8.09,37.35Z"/></svg>