<svg id="Layer_1" data-name="Layer 1" xmlns="http://www.w3.org/2000/svg" viewBox="0 0 35.77 34.59"><defs><style>.cls-1{fill:gray;}</style></defs><title>2-Report-managament</title><path class="cls-1" d="M32.76,0H3A3,3,0,0,0,0,3V24a3,3,0,0,0,3,3H7a10.75,10.75,0,0,1-.15-1.8,11.22,11.22,0,0,1,.19-2H3.82V13.16H32V23.21H28.73a11.21,11.21,0,0,1,.18,2,10.75,10.75,0,0,1-.14,1.8h4a3,3,0,0,0,3-3V3a3,3,0,0,0-3-3ZM32,7H3.82V3.81H32Zm0,0"/><path class="cls-1" d="M17.89,15.85a9.37,9.37,0,1,0,9.37,9.37,9.38,9.38,0,0,0-9.37-9.37Zm2.69,13.07a3,3,0,0,1-1.56,1,.44.44,0,0,0-.38.5c0,.27,0,.55,0,.83a.34.34,0,0,1-.37.39h-.89a.36.36,0,0,1-.39-.41v-.61c0-.44,0-.46-.45-.53A5.74,5.74,0,0,1,15,29.63c-.4-.19-.44-.28-.33-.7s.17-.62.27-.92.2-.39.53-.22a5.24,5.24,0,0,0,1.77.52,2.08,2.08,0,0,0,1.15-.16.89.89,0,0,0,.22-1.57,2.41,2.41,0,0,0-.66-.38,12.68,12.68,0,0,1-1.8-.81A2.53,2.53,0,0,1,14.67,23a2.69,2.69,0,0,1,2-2.5c.47-.17.49-.16.49-.66v-.52c0-.38.07-.44.45-.45h.34c.82,0,.82,0,.82.81,0,.57,0,.57.57.66a5.12,5.12,0,0,1,1.25.37.36.36,0,0,1,.24.49c-.1.34-.19.7-.31,1s-.22.37-.53.23A3.87,3.87,0,0,0,18,22a1.6,1.6,0,0,0-.52.1.76.76,0,0,0-.19,1.34,3.83,3.83,0,0,0,.86.49,13.75,13.75,0,0,1,1.57.71,2.81,2.81,0,0,1,.88,4.26Zm0,0"/></svg>